<svg xmlns="http://www.w3.org/2000/svg" width="408" height="128" viewBox="0 0 408 128">
  <g fill="#02AABA" fill-rule="evenodd">
    <path d="M36.7332 46.4731C36.9052 45.0961 38.2602 43.6571 39.6252 43.3921L59.1212 39.6921 58.4902 36.3591 38.9942 40.0541C36.1872 40.5831 33.7102 43.2231 33.3652 46.0581L30.7292 67.3641C27.2192 67.2271 23.4712 66.5431 19.0472 65.3951 14.0582 64.0971 7.1662 65.6821 7.1662 65.6821L7.1662 65.5901 10.4652 114.3651C10.4952 114.8771 11.0162 115.3631 11.5282 115.3631L37.0192 115.3631C37.5312 115.3631 38.0532 114.8821 38.0792 114.3651L41.3772 65.5901 41.2842 65.6821C41.2842 65.6821 37.6242 66.8521 34.1582 67.2581L36.7332 46.4731zM.3992 56.2481L4.3632 116.1401C4.6152 119.8311 7.8292 122.8331 11.5332 124.1931L37.0202 124.1931C40.7202 122.8331 43.9332 119.8311 44.1862 116.1401L48.1552 56.2481 44.0582 56.2481 40.1202 114.5111C40.0182 116.0471 38.5652 117.4071 37.0212 117.4071L11.5292 117.4071C9.9792 117.4071 8.5352 116.0471 8.4252 114.5111L4.4822 56.2481.3992 56.2481zM386.6382 47.7921L377.1552 47.7921 377.1552 38.3091C377.1552 36.5651 375.7412 35.1511 373.9972 35.1511 372.2532 35.1511 370.8392 36.5651 370.8392 38.3091L370.8392 47.7921 361.3562 47.7921C359.6122 47.7921 358.1982 49.2061 358.1982 50.9501 358.1982 52.6941 359.6122 54.1081 361.3562 54.1081L370.8392 54.1081 370.8392 63.5911C370.8392 65.3351 372.2532 66.7491 373.9972 66.7491 375.7412 66.7491 377.1552 65.3351 377.1552 63.5911L377.1552 54.1081 386.6382 54.1081C388.3822 54.1081 389.7962 52.6941 389.7962 50.9501 389.7962 49.2061 388.3822 47.7921 386.6382 47.7921L386.6382 47.7921zM405.1872 67.7341L397.9362 67.7341 397.9362 60.4841C397.9362 59.1501 396.8552 58.0691 395.5222 58.0691 394.1892 58.0691 393.1072 59.1501 393.1072 60.4841L393.1072 67.7341 385.8572 67.7341C384.5242 67.7341 383.4432 68.8151 383.4432 70.1481 383.4432 71.4821 384.5242 72.5631 385.8572 72.5631L393.1072 72.5631 393.1072 79.8131C393.1072 81.1461 394.1892 82.2271 395.5222 82.2271 396.8552 82.2271 397.9362 81.1461 397.9362 79.8131L397.9362 72.5631 405.1872 72.5631C406.5202 72.5631 407.6012 71.4821 407.6012 70.1481 407.6012 68.8151 406.5202 67.7341 405.1872 67.7341L405.1872 67.7341zM360.5602 72.0271L354.9112 72.0271 354.9112 66.3781C354.9112 65.3391 354.0682 64.4961 353.0292 64.4961 351.9902 64.4961 351.1482 65.3391 351.1482 66.3781L351.1482 72.0271 345.4992 72.0271C344.4602 72.0271 343.6182 72.8691 343.6182 73.9081 343.6182 74.9471 344.4602 75.7891 345.4992 75.7891L351.1482 75.7891 351.1482 81.4391C351.1482 82.4781 351.9902 83.3201 353.0292 83.3201 354.0682 83.3201 354.9112 82.4781 354.9112 81.4391L354.9112 75.7891 360.5602 75.7891C361.5992 75.7891 362.4412 74.9471 362.4412 73.9081 362.4412 72.8691 361.5992 72.0271 360.5602 72.0271L360.5602 72.0271zM381.8522 98.5941C386.8482 98.5941 390.9252 102.6361 390.9252 107.5891 390.9252 107.6621 390.9252 107.7721 390.8902 107.8451 390.9252 107.9531 390.9252 108.0251 390.9252 108.1361 390.9252 113.0891 386.8482 117.0941 381.8522 117.0941 376.8562 117.0941 372.8152 113.0891 372.8152 108.1361L372.8152 107.8451 372.8152 107.5891C372.8152 102.6361 376.8562 98.5941 381.8522 98.5941L381.8522 98.5941zM404.5902 86.6501L361.6352 86.6501 361.6712 86.6501C363.9492 87.1241 366.0432 87.7791 367.8062 88.6171 368.1012 88.7251 368.3582 88.8711 368.6152 89.0161L404.5902 89.0161 405.2122 89.0161 405.2122 89.6361 405.2122 114.7631 407.6012 110.3571 407.6012 86.6501 404.5902 86.6501zM359.6992 105.4411C358.8192 105.5141 357.9072 105.5491 356.9952 105.5491 356.0522 105.5491 355.1402 105.5141 354.2592 105.4411 353.0022 105.2961 351.8072 105.0771 350.6432 104.8211 349.9202 104.6411 349.1982 104.4221 348.5372 104.1661 347.5932 103.8381 346.7452 103.4741 345.9592 103.0371 345.2352 102.6361 344.6062 102.1991 344.0412 101.7631 343.4122 102.5281 343.0972 103.3281 343.0972 104.1661 343.0972 105.0051 343.4122 105.8431 344.0412 106.6051 344.2602 106.8961 344.5442 107.1901 344.8272 107.4811 345.1412 107.7351 345.4562 107.9901 345.8012 108.2091 346.1482 108.4651 346.4942 108.6831 346.8712 108.8641 348.8202 109.9581 351.3992 110.7201 354.2592 111.0111 355.1402 111.1221 356.0522 111.1591 356.9952 111.1591 357.9072 111.1591 358.8192 111.1221 359.6992 111.0111 362.5922 110.7201 365.1392 109.9581 367.1192 108.8641 367.4972 108.6831 367.8432 108.4651 368.1562 108.2091 368.5342 107.9901 368.8492 107.7351 369.1312 107.4811 369.4472 107.1901 369.7292 106.8961 369.9492 106.6051 370.5462 105.8431 370.8922 105.0051 370.8922 104.1661 370.8922 103.3281 370.5462 102.5281 369.9492 101.7631 369.3832 102.1991 368.7232 102.6361 368.0322 103.0371 367.2462 103.4741 366.3652 103.8381 365.4522 104.1661 364.7612 104.4221 364.0692 104.6411 363.3152 104.8211 362.1832 105.0771 360.9562 105.2961 359.6992 105.4411L359.6992 105.4411zM356.9952 113.6331C356.0522 113.6331 355.1402 113.5981 354.2592 113.5261 353.0022 113.3801 351.8072 113.1971 350.6432 112.9061 349.9202 112.7251 349.1982 112.5071 348.5372 112.2861 347.5932 111.9221 346.7452 111.5581 345.9592 111.1221 345.2352 110.7201 344.6062 110.3211 344.0412 109.8471 343.4122 110.6121 343.0972 111.4501 343.0972 112.2861 343.0972 113.1241 343.4122 113.9271 344.0412 114.6901 344.2602 114.9811 344.5442 115.2741 344.8272 115.5661 345.1412 115.8191 345.4562 116.0751 345.8012 116.3281 346.1482 116.5491 346.4942 116.7671 346.8712 116.9861 349.4172 118.3681 353.0022 119.2441 356.9952 119.2441 360.9562 119.2441 364.5422 118.3681 367.1192 116.9861 367.4972 116.7671 367.8432 116.5491 368.1562 116.3281 368.5342 116.0751 368.8492 115.8191 369.1312 115.5661 369.4472 115.2741 369.7292 114.9811 369.9492 114.6901 370.5462 113.9271 370.8922 113.1241 370.8922 112.2861 370.8922 111.4501 370.5462 110.6121 369.9492 109.8471 369.3832 110.3211 368.7232 110.7201 368.0322 111.1221 367.2462 111.5581 366.3652 111.9221 365.4522 112.2861 364.7612 112.5071 364.0692 112.7251 363.3152 112.9061 362.1832 113.1971 360.9562 113.3801 359.6992 113.5261 358.8192 113.5981 357.9072 113.6331 356.9952 113.6331L356.9952 113.6331zM356.9952 121.7561C352.6872 121.7561 348.7882 120.7721 345.9592 119.2061 345.2352 118.8421 344.6062 118.4061 344.0412 117.9321 343.4122 118.6971 343.0972 119.5351 343.0972 120.3711 343.0972 122.1191 344.5442 123.7951 346.8712 125.0701 349.4172 126.4901 353.0022 127.3641 356.9952 127.3641 360.9562 127.3641 364.5422 126.4901 367.1192 125.0701 369.4472 123.7951 370.8922 122.1191 370.8922 120.3711 370.8922 119.5351 370.5462 118.6971 369.9492 117.9321 369.3832 118.4061 368.7232 118.8421 368.0322 119.2061 365.1702 120.7721 361.2712 121.7561 356.9952 121.7561L356.9952 121.7561zM367.1192 91.3851C364.5422 89.9651 360.9562 89.0891 356.9952 89.0891 353.0022 89.0891 349.4172 89.9651 346.8712 91.3851 344.5442 92.6591 343.0972 94.3331 343.0972 96.0821 343.0972 96.9201 343.4122 97.7581 344.0412 98.5211 344.2602 98.8141 344.5442 99.1061 344.8272 99.3591 345.1412 99.6501 345.4562 99.9061 345.8012 100.1241 346.1482 100.3431 346.4942 100.5611 346.8712 100.7791 348.8202 101.8731 351.3992 102.6361 354.2592 102.9291 355.1402 103.0371 356.0522 103.0751 356.9952 103.0751 357.9072 103.0751 358.8192 103.0371 359.6992 102.9291 362.5922 102.6361 365.1392 101.8731 367.1192 100.7791 367.4972 100.5611 367.8432 100.3431 368.1562 100.1241 368.5342 99.9061 368.8492 99.6501 369.1312 99.3591 369.4472 99.1061 369.7292 98.8141 369.9492 98.5211 370.5462 97.7581 370.8922 96.9201 370.8922 96.0821 370.8922 94.3331 369.4472 92.6591 367.1192 91.3851L367.1192 91.3851zM384.0932 124.3051L372.5832 124.3051C373.4262 123.1761 373.9062 121.9741 373.9782 120.6991L384.0932 120.6991 391.9142 120.6991C391.9142 116.7301 395.1482 113.5261 399.1532 113.5261L399.1532 107.8451 399.1532 102.1991C395.1482 102.1991 391.9142 98.9951 391.9142 95.0261L384.0932 95.0261 373.9062 95.0261C373.6472 93.7511 373.0232 92.5871 372.0312 91.4931L371.9212 91.4201 384.0932 91.4201 402.7892 91.4201 402.7892 107.8451 402.7892 124.3051 384.0932 124.3051z"/>
    <g transform="translate(154)">
      <path d="M79.3027 43.5894C79.3027 59.7754 66.1677 72.8774 50.0147 72.8774 33.8297 72.8774 20.6947 59.7754 20.6947 43.5894 20.6947 41.6304 20.8877 39.7354 21.2727 37.8734L78.7247 37.8734C79.1097 39.7354 79.3027 41.6304 79.3027 43.5894M89.837 124.3432C96.636 124.3432 101.122 117.2302 98.175 111.1042 89.538 93.1472 71.167 80.6722 50 80.6722L50 80.6722C28.833 80.6722 10.462 93.1472 1.824 111.1042-1.122 117.2302 3.364 124.3432 10.163 124.3432L89.837 124.3432zM78.9816 19.1117C77.5116 19.1117 76.3206 17.9197 76.3206 16.4507 76.3206 14.9807 77.5116 13.7887 78.9816 13.7887 80.4506 13.7887 81.6426 14.9807 81.6426 16.4507 81.6426 17.9197 80.4506 19.1117 78.9816 19.1117M71.7296 19.1117C70.2596 19.1117 69.0686 17.9197 69.0686 16.4507 69.0686 14.9807 70.2596 13.7887 71.7296 13.7887 73.1986 13.7887 74.3906 14.9807 74.3906 16.4507 74.3906 17.9197 73.1986 19.1117 71.7296 19.1117M64.4776 19.1117C63.0076 19.1117 61.8166 17.9197 61.8166 16.4507 61.8166 14.9807 63.0076 13.7887 64.4776 13.7887 65.9486 13.7887 67.1396 14.9807 67.1396 16.4507 67.1396 17.9197 65.9486 19.1117 64.4776 19.1117M49.9986 19.1117C48.5286 19.1117 47.3376 17.9197 47.3376 16.4507 47.3376 14.9807 48.5286 13.7887 49.9986 13.7887 51.4686 13.7887 52.6596 14.9807 52.6596 16.4507 52.6596 17.9197 51.4686 19.1117 49.9986 19.1117M55.5406 24.3497L52.1926 21.4837C54.1326 20.6377 55.4896 18.7027 55.4896 16.4497 55.4896 13.4177 53.0316 10.9597 49.9986 10.9597 46.9666 10.9597 44.5086 13.4177 44.5086 16.4497 44.5086 17.7437 44.9556 18.9327 45.7046 19.8717 47.3196 21.9517 51.2626 25.0297 53.1106 26.4217 51.5006 27.6067 50.2056 28.2277 50.1346 28.2627L49.9956 28.3277 49.8586 28.2627C49.7636 28.2157 47.5126 27.1277 45.2276 25.0677 42.1806 22.3217 40.5686 19.6377 40.5666 16.3977L40.5666 16.3887C40.5696 11.1917 44.7976 6.9647 49.9946 6.9647 52.5216 6.9647 54.8956 7.9497 56.6806 9.7377 58.4586 11.5177 59.4346 13.8827 59.4296 16.3927 59.4246 19.3607 58.0846 21.8557 55.5406 24.3497M35.5196 19.1117C34.0496 19.1117 32.8586 17.9197 32.8586 16.4507 32.8586 14.9807 34.0496 13.7887 35.5196 13.7887 36.9886 13.7887 38.1806 14.9807 38.1806 16.4507 38.1806 17.9197 36.9886 19.1117 35.5196 19.1117M28.2676 19.1117C26.7976 19.1117 25.6066 17.9197 25.6066 16.4507 25.6066 14.9807 26.7976 13.7887 28.2676 13.7887 29.7376 13.7887 30.9286 14.9807 30.9286 16.4507 30.9286 17.9197 29.7376 19.1117 28.2676 19.1117M21.0166 19.1117C19.5466 19.1117 18.3556 17.9197 18.3556 16.4507 18.3556 14.9807 19.5466 13.7887 21.0166 13.7887 22.4856 13.7887 23.6776 14.9807 23.6776 16.4507 23.6776 17.9197 22.4856 19.1117 21.0166 19.1117M86.6246 10.7687C73.6186 7.1727 53.4186 1.6487 50.0146.9097 46.5786 1.6487 26.3786 7.1727 13.3726 10.7687 12.5056 11.7327 12.1526 13.2417 12.5696 14.5907L16.8736 29.0417C17.2906 30.4867 18.4466 31.4507 19.7316 31.4507L80.2666 31.4507C81.5506 31.4507 82.7066 30.4867 83.1246 29.0417L87.4276 14.5907C87.8456 13.2417 87.4916 11.7327 86.6246 10.7687"/>
    </g>
  </g>
</svg>
