<?xml version="1.0" encoding="UTF-8" standalone="no"?>
<svg width="135px" height="40px" viewBox="0 0 135 40" version="1.1" xmlns="http://www.w3.org/2000/svg" xmlns:xlink="http://www.w3.org/1999/xlink">
    <!-- Generator: Sketch 3.7 (28169) - http://www.bohemiancoding.com/sketch -->
    <title>google-play-badge</title>
    <desc>Created with Sketch.</desc>
    <defs></defs>
    <g id="Page-1" stroke="none" stroke-width="1" fill="none" fill-rule="evenodd">
        <g id="google-play-badge">
            <g id="artwork">
                <g id="Group">
                    <path d="M5,40 C2.2,40 0,37.8 0,35 L0,5 C0,2.2 2.2,0 5,0 L130,0 C132.8,0 135,2.2 135,5 L135,35 C135,37.7 132.8,40 130,40 L5,40 Z" id="Shape" fill="#84A42B"></path>
                    <path d="M130,0.8 C132.3,0.8 134.2,2.7 134.2,5 L134.2,35 C134.2,37.3 132.3,39.2 130,39.2 L5,39.2 C2.7,39.2 0.8,37.3 0.8,35 L0.8,5 C0.8,2.7 2.7,0.8 5,0.8 L130,0.8 L130,0.8 Z M130,0 L5,0 C2.2,0 0,2.2 0,5 L0,35 C0,37.8 2.2,40 5,40 L130,40 C132.8,40 135,37.8 135,35 L135,5 C135,2.3 132.8,0 130,0 L130,0 L130,0 Z" id="Shape" fill="#AFCF53"></path>
                    <path d="M31.6167823,17.6232437 L31.6167823,15.2301967 L31.6167823,12.802568 C31.6167823,12.2734695 31.7975801,11.8204505 32.162587,11.4504273 C32.5275939,11.0804041 32.9710602,10.8971216 33.492986,10.8971216 C33.994444,10.8971216 34.4242652,11.076946 34.7892721,11.4331365 C35.154279,11.789327 35.3453107,12.2250552 35.3691896,12.7334048 L35.3691896,12.9063128 L35.3691896,13.0446393 L35.3691896,17.2912603 L35.3691896,21.572463 C35.3691896,21.8491158 35.4305927,22.0496891 35.55681,22.177641 C35.6830273,22.305593 35.8808815,22.3678399 36.1537839,22.3678399 L37.6376904,22.3678399 L39.0874842,22.3678399 C39.6571678,22.392047 40.1211018,22.585704 40.4861087,22.9557271 C40.8511156,23.3257503 41.0216796,23.7891438 40.9978006,24.3424495 C40.9978006,24.826592 40.8272367,25.2519457 40.4861087,25.6081362 C40.1449808,25.9643267 39.7356273,26.1441511 39.2580481,26.1441511 C38.5519133,26.1683582 37.8594236,26.1787327 37.1771677,26.1787327 C36.4949118,26.1787327 35.812656,26.1683582 35.1304001,26.1441511 C34.2673464,26.119944 33.4998085,25.7879606 32.8277865,25.1378264 C32.1557645,24.4911504 31.7634673,23.7268969 31.6508951,22.8485242 C31.6508951,22.7344049 31.6440726,22.6237437 31.6338387,22.5199989 C31.6236049,22.4162541 31.6167823,22.305593 31.6167823,22.1914737 L31.6167823,19.9021715 L31.6167823,17.6232437 L31.6167823,17.6232437 L31.6167823,17.6232437 L31.6167823,17.6232437 L31.6167823,17.6232437 Z M29.7064659,21.4721763 L29.7064659,22.8416078 L29.7064659,24.2110394 C29.7064659,25.3211089 29.341459,26.2478959 28.6148565,26.9844841 C27.8882539,27.7210723 26.9876762,28.0945536 25.9199457,28.0945536 L24.0266857,28.0945536 L22.1334256,28.0945536 C21.7001931,28.0703465 21.3215411,27.9216456 20.990647,27.6449927 C20.6597529,27.3683399 20.4516649,27.0121494 20.3595603,26.5695048 C20.2913348,26.1303184 20.3493265,25.711881 20.5301243,25.3211089 C20.7109221,24.9303368 21.0077034,24.6502258 21.417057,24.4876922 C21.5535081,24.418529 21.6967819,24.3735729 21.8434669,24.3493658 C21.9901519,24.3251587 22.1334256,24.3147842 22.2698768,24.3147842 C22.7474559,24.2905771 23.225035,24.2802026 23.7026141,24.2802026 L25.1353515,24.2802026 C25.4526005,24.2802026 25.6743336,24.2214139 25.800551,24.1072946 C25.9267683,23.9931753 25.9881713,23.771853 25.9881713,23.4502441 L25.9881713,21.0226154 L25.9881713,18.5949868 C25.9881713,18.1350515 26.1177999,17.7269885 26.3804685,17.3811725 C26.643137,17.0353564 26.9876762,16.8036597 27.4209087,16.6860822 C28.01106,16.5477558 28.5398083,16.6618751 29.0071536,17.0318983 C29.4744989,17.4019214 29.7064659,17.8895221 29.7064659,18.4877838 L29.7064659,19.9955418 L29.7064659,21.4721763 L29.7064659,21.4721763 L29.7064659,21.4721763 L29.7064659,21.4721763 L29.7064659,21.4721763 L29.7064659,21.4721763 Z M24.0778549,15.6797575 L24.0778549,18.0900954 C24.0778549,18.0900954 24.067621,18.8820141 24.0437421,20.4658516 C24.0437421,21.185149 23.7435495,21.7211639 23.139753,22.0773544 C22.5359566,22.4335449 21.9287489,22.4508357 21.3147186,22.1292268 C21.0179373,21.9666932 20.7859703,21.7488291 20.6154063,21.4721763 C20.4448423,21.1955235 20.3493265,20.884289 20.3254476,20.5350148 L20.3254476,20.2756528 L20.3254476,20.0508724 L20.3254476,15.5068495 L20.3254476,10.9662848 C20.3254476,10.5270984 20.4448423,10.1328682 20.6836319,9.78705211 C20.9224214,9.44123606 21.246493,9.20953931 21.6558465,9.09196185 C22.2459978,8.90867935 22.7918025,8.99859152 23.2932606,9.36861469 C23.7947187,9.73863786 24.0539759,10.236613 24.0778549,10.8590818 L24.0778549,13.2694197 L24.0778549,15.6797575 L24.0778549,15.6797575 L24.0778549,15.6797575 L24.0778549,15.6797575 L24.0778549,15.6797575 Z M29.7064659,12.802568 C29.7064659,13.3109176 29.5256681,13.7570203 29.1606612,14.137418 C28.7956543,14.5178156 28.3658331,14.7080144 27.864375,14.7080144 C27.3424492,14.7080144 26.8989829,14.5247319 26.533976,14.1547088 C26.1689691,13.7846856 25.9881713,13.3316666 25.9881713,12.802568 C25.9881713,12.2942184 26.1689691,11.8481157 26.533976,11.4677181 C26.8989829,11.0873204 27.3288041,10.8971216 27.8302622,10.8971216 C28.3521879,10.8971216 28.7956543,11.0804041 29.1606612,11.4504273 C29.5256681,11.8204505 29.7064659,12.2734695 29.7064659,12.802568 L29.7064659,12.802568 L29.7064659,12.802568 L29.7064659,12.802568 L29.7064659,12.802568 Z M33.4588732,28.0945536 C33.4588732,28.6236521 33.2780754,29.0766712 32.9130685,29.4466943 C32.5480616,29.8167175 32.1182404,30 31.6167823,30 C31.0948566,30 30.6513903,29.8167175 30.2863834,29.4466943 C29.9213765,29.0766712 29.7405787,28.6236521 29.7405787,28.0945536 C29.7405787,27.586204 29.9213765,27.1470176 30.2863834,26.7769945 C30.6513903,26.4069713 31.0948566,26.2236888 31.6167823,26.2236888 C32.1387081,26.2236888 32.5787631,26.4035131 32.9301249,26.7597036 C33.2814867,27.1158942 33.4588732,27.5619969 33.4588732,28.0945536 L33.4588732,28.0945536 L33.4588732,28.0945536 L33.4588732,28.0945536 L33.4588732,28.0945536 Z M18.4151311,14.6042696 C18.3912521,14.0267568 18.1422287,13.556447 17.6646496,13.2002565 C17.1870705,12.844066 16.6753786,12.7334048 16.1295739,12.8717312 C15.6963414,12.9858505 15.3518022,13.210631 15.0891337,13.5495307 C14.8264652,13.8884304 14.6968366,14.2964933 14.6968366,14.7806358 C14.6729576,15.5898454 14.6695463,16.4025131 14.6797802,17.2255553 C14.690014,18.0485974 14.6968366,18.8716396 14.6968366,19.7050563 C14.6968366,19.957502 14.6354335,20.1477008 14.5092162,20.2756528 C14.3829989,20.4036047 14.1851447,20.4658516 13.9122423,20.4658516 L12.4112794,20.4658516 L10.9103165,20.4658516 C10.8420909,20.4658516 10.7806878,20.4727679 10.7226961,20.4831424 C10.6647043,20.4935169 10.6135351,20.5004332 10.5691885,20.5004332 C10.1154884,20.5695964 9.74024763,20.7770861 9.44346632,21.1229021 C9.14668501,21.4687181 9,21.8767811 9,22.3367164 C9,22.7067396 9.08528198,23.038723 9.25584595,23.3257503 C9.42640992,23.6127776 9.65837692,23.8375581 9.95515823,24.0035498 L9.97221462,24.0035498 C9.97221462,24.0035498 9.98927102,24.0139242 10.0233838,24.0381314 C10.0472628,24.0381314 10.0677304,24.0450477 10.0916094,24.0554222 L10.1939478,24.1072946 C10.30652,24.1522507 10.4259148,24.1868323 10.5521321,24.2110394 C10.6783495,24.2352465 10.8079781,24.245621 10.9444292,24.245621 C11.172985,24.2698281 11.4117745,24.2802026 11.6607979,24.2802026 L12.3771666,24.2802026 C12.8308667,24.2559955 13.2879782,24.2525373 13.7416783,24.2629118 C14.1953785,24.2732863 14.6524899,24.2559955 15.1061901,24.2110394 C15.9931227,24.1418762 16.7606606,23.7614785 17.4088037,23.0663883 C18.0569468,22.371298 18.3912521,21.5759211 18.4151311,20.6733412 L18.4151311,17.6405345 L18.4151311,14.6042696 L18.4151311,14.6042696 L18.4151311,14.6042696 L18.4151311,14.6042696 L18.4151311,14.6042696 Z" id="Shape" fill="#FFFFFF"></path>
                    <path d="M93.2977179,21.9991331 C93.1241972,21.9991331 92.9188675,21.9803498 92.6817225,21.9427828 C92.4445776,21.9052158 92.2093642,21.8554403 91.9760752,21.7934547 C91.7427863,21.7314691 91.5268527,21.661032 91.3282679,21.5821413 C91.1296831,21.5032506 90.9802648,21.424361 90.8800084,21.3454703 L91.267536,20.4833117 C91.4063525,20.5622024 91.5634828,20.6373353 91.7389315,20.7087126 C91.9143802,20.7800899 92.1013941,20.8430137 92.2999789,20.8974859 C92.4985637,20.9519581 92.7019655,20.9960987 92.9101903,21.029909 C93.1184151,21.0637193 93.3227809,21.0806242 93.5232937,21.0806242 C93.8086388,21.0806242 94.0795198,21.0421186 94.3359448,20.9651062 C94.5923699,20.8880938 94.8034835,20.7500371 94.9692922,20.5509319 C95.1042527,20.3893938 95.1592001,20.1949874 95.134136,19.967707 C95.1090719,19.7404265 95.0319528,19.4990621 94.9027763,19.2436064 C94.7735998,18.9881507 94.6068296,18.7289422 94.4024608,18.4659731 C94.198092,18.203004 93.9821583,17.9560046 93.7546534,17.7249675 C93.5271485,17.4939304 93.303503,17.2901324 93.0837101,17.1135674 C92.8639172,16.9370024 92.6730473,16.8055199 92.5110947,16.7191157 C92.580503,16.5688477 92.6441263,16.4298518 92.7019665,16.302124 C92.7598067,16.1743961 92.8215021,16.0391569 92.8870543,15.8964023 C93.0991352,16.0091033 93.3141048,16.1480992 93.5319697,16.313394 C93.7498345,16.4786889 93.9628762,16.6608862 94.171101,16.8599913 C94.3793258,17.0590965 94.5779077,17.2713469 94.7668524,17.496749 C94.9557972,17.7221511 95.1273873,17.9531848 95.2816279,18.189857 C95.4358685,18.4265291 95.569863,18.6631978 95.6836155,18.89987 C95.7973679,19.1365421 95.881235,19.3656975 95.9352192,19.5873429 C95.9622113,19.711314 95.9814911,19.8409183 95.9930592,19.9761595 C96.0046272,20.1114008 96.0017352,20.2447617 95.9843832,20.3762462 C95.9670311,20.5077308 95.9342555,20.6363958 95.8860553,20.7622453 C95.8378551,20.8880948 95.7674838,21.0036117 95.6749395,21.1087993 C95.3317541,21.5107664 94.8555434,21.7756098 94.2462929,21.9033377 C94.1113324,21.937148 93.963842,21.9615662 93.8038174,21.976593 C93.6437927,21.9916198 93.4750946,21.9991331 93.2977179,21.9991331 L93.2977179,21.9991331 Z M89.312546,18.5955787 C89.4166584,18.9449519 89.5130573,19.2849283 89.6017457,19.615518 C89.6403058,19.7582726 89.6788654,19.9047818 89.7174256,20.0550498 C89.7559857,20.2053179 89.7916533,20.3546445 89.8244294,20.5030342 C89.8572056,20.6514239 89.8870892,20.7941765 89.9140814,20.9312961 C89.9410735,21.0684157 89.9622812,21.1933241 89.9777053,21.3060251 C89.9777053,21.3511056 89.9805973,21.3971245 89.9863813,21.4440832 C89.9921653,21.491042 89.9950573,21.5464525 89.9950573,21.6103164 C89.9950573,21.9221226 89.9478218,22.2264109 89.8533494,22.5231903 C89.758877,22.8199697 89.6287385,23.1045356 89.4629298,23.3768964 C89.2971212,23.6492572 89.0995033,23.9103441 88.8700704,24.1601647 C88.6406375,24.4099854 88.3909643,24.6457148 88.1210432,24.8673602 C87.8511221,25.0890056 87.5648173,25.2946819 87.2621201,25.4843953 C86.9594228,25.6741087 86.6519102,25.8459752 86.339573,26 L85.9404774,25.2110967 C86.345359,25.0082348 86.7367387,24.776262 87.1146282,24.5151712 C87.4925177,24.2540805 87.827986,23.9704538 88.1210432,23.6642826 C88.4141003,23.3581115 88.6493138,23.0322225 88.8266905,22.686606 C89.0040672,22.3409895 89.0927542,21.9822299 89.0927542,21.6103164 C89.0927542,21.5727494 89.0908262,21.535183 89.0869702,21.497616 C89.0831142,21.4600489 89.0792582,21.4206042 89.0754022,21.3792805 C89.0599781,21.2402825 89.0358784,21.0890775 89.0031023,20.925661 C88.9703262,20.7622445 88.9327306,20.5950738 88.8903144,20.4241439 C88.8478982,20.253214 88.8035547,20.0860433 88.7572825,19.9226268 C88.7110103,19.7592103 88.6666668,19.6070662 88.6242507,19.4661899 C88.5818345,19.3253136 88.5432749,19.2022834 88.5085708,19.0970958 C88.4738666,18.9919082 88.4488029,18.9130186 88.4333789,18.8604248 L89.312546,18.5955787 Z M84.413503,24.0615518 L83.5690398,24.8842653 L82.7130087,24.0559168 L83.5574718,23.2275683 L84.413503,24.0615518 Z M82.8542668,21.1255608 C83.0524311,21.1247086 83.268515,21.1200606 83.5025239,21.1116168 C83.7628049,21.1022251 84.0144062,21.0740502 84.2573351,21.0270915 C84.5002641,20.9801327 84.7190897,20.9068781 84.9138185,20.8073255 C85.1085472,20.7077729 85.2463977,20.5697162 85.327374,20.3931513 L85.327374,20.3987863 C85.3890703,20.2748152 85.4199179,20.1095228 85.4199179,19.9029042 C85.4199179,19.7263392 85.3929262,19.5272371 85.338942,19.3055917 C85.2849578,19.0839463 85.2155506,18.8416427 85.1307182,18.5786736 C85.0998701,18.4847561 85.0622745,18.3833267 85.0179303,18.2743823 C84.9735862,18.165438 84.9302066,18.0593128 84.8877905,17.9560035 C84.8453743,17.8526942 84.8039228,17.7578389 84.7634346,17.6714348 C84.7229464,17.5850306 84.6911348,17.5155327 84.6679987,17.4629389 L85.4893259,17.0628522 C85.512462,17.115446 85.5433096,17.1830656 85.5818698,17.265713 C85.6204299,17.3483605 85.6628455,17.4441549 85.7091176,17.5530993 C85.7553898,17.6620436 85.8026253,17.7803779 85.8508255,17.9081058 C85.8990257,18.0358336 85.9462612,18.1691945 85.9925334,18.3081925 C86.0927898,18.6124853 86.1679809,18.896112 86.2181091,19.1590811 C86.2682373,19.4220502 86.293301,19.6662321 86.293301,19.8916342 C86.293301,20.2222239 86.2393176,20.5096072 86.1313492,20.7537928 C85.9963887,21.028032 85.8122667,21.2637615 85.5789778,21.4609883 C85.3456888,21.6582151 85.0670959,21.8000285 84.7431906,21.8864326 C84.6429342,21.9164862 84.5137597,21.9390261 84.355663,21.9540529 C84.1975664,21.9690797 84.0346522,21.9803496 83.8669155,21.987863 C83.6991789,21.9953764 83.5401206,22.0000722 83.389736,22.0019506 C83.2393514,22.0038289 83.1217447,22.0047681 83.0369124,22.0047681 L82.1461773,22.0047681 C82.0227848,22.0047681 81.9167459,21.9625058 81.8280576,21.8779801 C81.8156353,21.8661408 81.804083,21.8539147 81.7934007,21.8413016 C81.5370211,21.749371 81.3191434,21.6160268 81.1397623,21.4412657 C81.0202258,21.324808 80.9286468,21.1989604 80.8650226,21.0637191 C80.8013983,20.9284779 80.7551268,20.795117 80.7262067,20.6636324 C80.6972866,20.5321479 80.6808988,20.4063003 80.6770428,20.2860858 C80.6731868,20.1658714 80.6712588,20.0625636 80.6712588,19.9761595 L80.6712588,19.8747291 C80.6751148,19.8108652 80.6799347,19.6427553 80.6857188,19.3703945 C80.6915028,19.0980336 80.6943948,18.7646314 80.6943948,18.3701777 C80.6943948,18.2311798 80.6934308,18.0734007 80.6915028,17.8968357 C80.6895748,17.7202708 80.6866828,17.5531001 80.6828268,17.3953186 C80.6828268,17.0985392 80.6789708,16.7820418 80.6712588,16.4458171 C80.6635467,16.1095923 80.6519789,15.781825 80.6365548,15.4625054 C80.6211308,15.1431858 80.602815,14.8445325 80.5816069,14.5665366 C80.5603988,14.2885407 80.5343711,14.0593854 80.503523,13.8790637 L81.405826,13.7212831 C81.4405302,13.9203882 81.4694499,14.1551785 81.4925859,14.425661 C81.515722,14.6961435 81.5340378,14.9872835 81.5475339,15.2990897 C81.5610299,15.6108959 81.5716338,15.9349066 81.5793459,16.2711313 C81.5870579,16.6073561 81.5909138,16.9370017 81.5909138,17.260078 C81.5947699,17.4779667 81.5976618,17.689278 81.5995898,17.8940182 C81.6015178,18.0987584 81.6024818,18.2950431 81.6024818,18.4828782 C81.6024818,18.7721442 81.6015178,19.0257177 81.5995898,19.2436064 C81.5976618,19.4614951 81.5947699,19.6267875 81.5909138,19.7394885 L81.5909138,19.8859991 L81.5909138,19.9874296 C81.5870578,20.1677512 81.5947697,20.3264695 81.6140498,20.4635891 C81.6333299,20.6007087 81.6950252,20.7181038 81.7991376,20.8157781 C81.895538,20.9096956 82.0324245,20.9838893 82.2098012,21.0383615 C82.3850856,21.0921911 82.5999053,21.1212573 82.8542668,21.1255608 Z M86.4668209,24.0728218 L85.6281417,24.8955353 L84.7721106,24.0615518 L85.6165737,23.2388383 L86.4668209,24.0728218 Z M75.1736735,21.1235745 C75.5852075,21.1178759 75.955347,21.1007417 76.2840993,21.0721717 C76.6947649,21.036483 77.0533689,20.9763767 77.3599222,20.8918509 C77.6664754,20.8073251 77.9267525,20.6955649 78.1407614,20.556567 C78.3547702,20.417569 78.5350362,20.2466417 78.6815648,20.0437798 L77.7908297,20.0437798 C77.5941729,20.0437798 77.4023391,20.0278141 77.2153223,19.9958821 C77.0283056,19.9639501 76.8518955,19.9169921 76.6860868,19.8550065 C76.5202782,19.7930209 76.3689319,19.717888 76.2320433,19.6296055 C76.0951548,19.5413231 75.978512,19.4408328 75.8821117,19.3281318 C75.8127034,19.2717813 75.754864,19.1881959 75.7085918,19.0773732 C75.6623197,18.9665505 75.6256881,18.8435204 75.598696,18.7082792 C75.5717038,18.5730379 75.557244,18.434042 75.555316,18.2912874 C75.553388,18.1485327 75.5620639,18.0170502 75.581344,17.8968357 C75.6314722,17.6225965 75.7076273,17.369023 75.8098117,17.1361075 C75.9119961,16.903192 76.0344228,16.6965765 76.1770954,16.5162549 C76.339048,16.3096363 76.519314,16.1537355 76.7178988,16.0485479 C76.9164836,15.9433603 77.1237413,15.8907672 77.3396782,15.8907672 C77.8139681,15.8907672 78.2477633,16.099261 78.6410769,16.5162549 C78.7914615,16.677793 78.92642,16.8618686 79.0459564,17.0684872 C79.1654929,17.2751058 79.2667118,17.4958087 79.3496161,17.7306025 C79.4325205,17.9653963 79.4961438,18.2105174 79.5404879,18.4659731 C79.5848321,18.7214288 79.6070039,18.978759 79.6070039,19.2379714 C79.6070039,19.6098848 79.5491645,19.9376521 79.433484,20.2212831 C79.3178036,20.504914 79.1568174,20.7500351 78.9505205,20.9566537 C78.7442237,21.1632722 78.4974424,21.3341996 78.2101693,21.4694408 C77.9228961,21.6046821 77.6067076,21.7126856 77.2615943,21.7934547 C76.9164809,21.8742238 76.547273,21.9305735 76.1539594,21.9625054 C75.8886959,21.9840414 75.6190502,21.9974606 75.3450188,22.0027631 C75.3296268,22.0040998 75.31393,22.0047681 75.2979283,22.0047681 L75.2516563,22.0047681 C75.2449327,22.0046898 75.2382214,22.0045979 75.2315225,22.0044924 C75.1365719,22.0055502 75.0410994,22.0056421 74.9451046,22.0047681 L74.8467767,22.0047681 C74.7696327,22.0047681 74.6992716,21.9878822 74.6356927,21.95411 C73.9758164,21.8469285 73.4697096,21.5707947 73.1173625,21.1257044 L73.1115785,21.1200694 C72.9650499,20.9510178 72.8320194,20.7012009 72.7124829,20.3706112 C71.6289426,21.4713247 70.0075124,22.0216732 67.8481438,22.0216732 C66.6951953,22.0141598 65.7427738,21.8826772 64.9908508,21.6272215 C64.2389278,21.3717658 63.6952378,20.9679265 63.3597644,20.4156914 C63.2248039,20.1978027 63.1293689,19.972404 63.0734567,19.7394885 C63.0175445,19.506573 62.9895888,19.2755394 62.9895888,19.0463806 C62.9895888,18.9036259 62.9992287,18.7636909 63.0185088,18.6265713 C63.0377888,18.4894517 63.0628526,18.3607866 63.0937007,18.2405722 C63.159253,17.9776031 63.2286602,17.7540827 63.3019245,17.5700043 C63.3751888,17.385926 63.4330281,17.2506867 63.4754443,17.1642826 C63.6219729,17.2431733 63.7569314,17.3173671 63.8803239,17.3868661 C64.0037164,17.456365 64.1367469,17.5286805 64.2794195,17.6038145 C64.2562834,17.660165 64.2215798,17.7352979 64.1753076,17.8292154 C64.1290354,17.923133 64.0846919,18.0311365 64.0422757,18.1532293 C63.9998596,18.2753221 63.962264,18.4068047 63.9294878,18.547681 C63.8967117,18.6885573 63.8803239,18.8322489 63.8803239,18.9787603 C63.8803239,19.132785 63.8996037,19.2905641 63.9381638,19.4521023 C63.976724,19.6136405 64.0384193,19.7657846 64.1232516,19.9085392 C64.2466441,20.1038877 64.4211262,20.2766934 64.6467031,20.4269614 C64.87228,20.5772295 65.143161,20.7040162 65.4593543,20.8073255 C65.7755475,20.9106348 66.1341516,20.9895244 66.5351772,21.0439965 C66.9362028,21.0984687 67.373854,21.1257044 67.8481438,21.1257044 C68.7080353,21.1257044 69.4454871,21.0505715 70.0605216,20.9003034 C70.675556,20.7500354 71.1855064,20.5133667 71.590388,20.1902904 L71.584604,20.1959254 C71.7581247,20.0606842 71.9094711,19.914175 72.0386476,19.7563936 C72.1678241,19.5986121 72.2786829,19.4351981 72.3712272,19.2661465 C72.4637716,19.097095 72.5428187,18.9271068 72.608371,18.7561769 C72.6739233,18.5852469 72.7317626,18.4171371 72.7818908,18.2518422 C72.9438435,18.2931659 73.0922978,18.3326107 73.2272584,18.3701777 C73.3622189,18.4077447 73.5068173,18.4471895 73.6610579,18.4885132 C73.6417779,18.5636472 73.624426,18.632206 73.609002,18.6941916 C73.5935779,18.7561772 73.5742981,18.8378842 73.551162,18.9393151 C73.5048899,19.1609605 73.4836821,19.3581844 73.4875381,19.5309926 C73.4952501,19.7000442 73.5222418,19.8784848 73.568514,20.0663199 C73.6147862,20.254155 73.7034732,20.4250823 73.8345778,20.5791071 L73.8287938,20.573472 C74.1108842,20.918765 74.5591734,21.102131 75.1736735,21.1235745 Z M77.3396782,16.781101 C77.2741259,16.781101 77.1912228,16.8064584 77.0909664,16.8571738 C76.99071,16.9078893 76.8894911,16.9849005 76.7873067,17.0882098 C76.6851223,17.1915191 76.5916154,17.3211233 76.506783,17.4770264 C76.4219507,17.6329295 76.3621833,17.8141877 76.3274792,18.0208062 L76.3274792,18.0151712 C76.3159112,18.0752784 76.3081992,18.1382022 76.3043432,18.2039445 C76.3004872,18.2696868 76.3033792,18.3354281 76.3130192,18.4011704 C76.3226593,18.4669126 76.3380831,18.5288973 76.3592912,18.5871261 C76.3804993,18.645355 76.4123109,18.6970089 76.4547271,18.7420893 L76.4489431,18.7420893 C76.4913593,18.7946831 76.5520906,18.8435195 76.6311389,18.8885999 C76.7101872,18.9336803 76.7998382,18.9740643 76.9000946,19.0097529 C77.000351,19.0454416 77.1073538,19.0745556 77.2211063,19.0970958 C77.3348588,19.119636 77.4476455,19.1346626 77.55947,19.142176 C77.6597264,19.1496894 77.7561253,19.153446 77.8486697,19.153446 L78.1147334,19.153446 C78.1957097,19.153446 78.2892167,19.1525069 78.3952571,19.1506285 C78.5012975,19.1487502 78.6179402,19.142176 78.7451887,19.1309059 C78.7297647,18.9280441 78.699881,18.7289419 78.6555368,18.5335934 C78.6111927,18.3382449 78.5552813,18.1532302 78.487801,17.9785436 C78.4203207,17.803857 78.3422376,17.6432604 78.2535492,17.496749 C78.1648609,17.3502377 78.068462,17.2225117 77.9643495,17.1135674 L77.9643495,17.1192024 C77.9296454,17.0816354 77.8891579,17.0431298 77.8428857,17.0036844 C77.7966135,16.9642391 77.74745,16.9276118 77.6953938,16.8938015 C77.6433376,16.8599912 77.5864622,16.8327555 77.524766,16.8120936 C77.4630697,16.7914318 77.4013744,16.781101 77.3396782,16.781101 Z M78.0106215,13.8339835 L77.1603744,14.662332 L76.3043432,13.8283485 L77.1545904,13 L78.0106215,13.8339835 Z M68.1084236,16.5726051 L67.2639604,17.3953186 L66.4079293,16.5669701 L67.2523925,15.7386216 L68.1084236,16.5726051 Z M70.1617415,16.5838752 L69.3230623,17.4065886 L68.4670312,16.5726051 L69.3114944,15.7498916 L70.1617415,16.5838752 Z M57.8186981,22.0047681 C57.8379782,21.6967186 57.854366,21.3990045 57.867862,21.1116168 C57.8813581,20.8242292 57.892926,20.5452983 57.902566,20.2748158 C57.912206,20.0043333 57.918954,19.7385506 57.92281,19.4774599 C57.926666,19.2163692 57.928594,18.9580998 57.928594,18.7026441 C57.928594,18.000141 57.9160621,17.3549372 57.890998,16.7670134 C57.8659339,16.1790897 57.8360502,15.662551 57.8013461,15.2173819 C57.766642,14.7722128 57.7329023,14.4031224 57.7001262,14.1100997 C57.6673501,13.817077 57.6432503,13.6104615 57.6278263,13.4902471 L58.5359133,13.3550065 C58.5359133,13.3625199 58.5378413,13.374729 58.5416973,13.3916342 C58.5455534,13.4085393 58.5494093,13.4385925 58.5532653,13.4817945 C58.5571213,13.5249966 58.5638693,13.5813463 58.5735093,13.6508453 C58.5831493,13.7203442 58.5937532,13.8095645 58.6053213,13.9185089 C58.6323134,14.1326409 58.6554491,14.3636745 58.6747292,14.6116168 C58.6940093,14.8595591 58.7132891,15.1262809 58.7325691,15.4117902 C58.7518492,15.6897861 58.7672731,15.9612037 58.7788411,16.2260511 C58.7904091,16.4908986 58.800049,16.737898 58.8077611,16.9670568 C58.8154731,17.2300259 58.822221,17.5061393 58.828005,17.7954053 C58.8337891,18.0846713 58.836681,18.3908379 58.836681,18.7139142 C58.836681,19.2173122 58.8289691,19.7460599 58.8135451,20.3001734 C58.798121,20.8542868 58.7692013,21.4393843 58.7267852,22.0554833 L57.8186981,22.0047681 Z M55.3720686,18.5955787 C55.476181,18.9449519 55.5725799,19.2849283 55.6612683,19.615518 C55.6998284,19.7582726 55.738388,19.9047818 55.7769482,20.0550498 C55.8155083,20.2053179 55.8511759,20.3546445 55.883952,20.5030342 C55.9167282,20.6514239 55.9466118,20.7941765 55.973604,20.9312961 C56.0005961,21.0684157 56.0218038,21.1933241 56.0372279,21.3060251 C56.0372279,21.3511056 56.0401199,21.3971245 56.0459039,21.4440832 C56.0516879,21.491042 56.0545799,21.5464525 56.0545799,21.6103164 C56.0545799,21.9221226 56.0073444,22.2264109 55.912872,22.5231903 C55.8183996,22.8199697 55.6882611,23.1045356 55.5224524,23.3768964 C55.3566438,23.6492572 55.1590259,23.9103441 54.929593,24.1601647 C54.7001601,24.4099854 54.4504869,24.6457148 54.1805658,24.8673602 C53.9106447,25.0890056 53.6243399,25.2946819 53.3216427,25.4843953 C53.0189454,25.6741087 52.7114328,25.8459752 52.3990956,26 L52,25.2110967 C52.4048816,25.0082348 52.7962613,24.776262 53.1741508,24.5151712 C53.5520403,24.2540805 53.8875086,23.9704538 54.1805658,23.6642826 C54.4736229,23.3581115 54.7088364,23.0322225 54.8862131,22.686606 C55.0635898,22.3409895 55.1522768,21.9822299 55.1522768,21.6103164 C55.1522768,21.5727494 55.1503488,21.535183 55.1464928,21.497616 C55.1426368,21.4600489 55.1387808,21.4206042 55.1349248,21.3792805 C55.1195007,21.2402825 55.095401,21.0890775 55.0626249,20.925661 C55.0298488,20.7622445 54.9922532,20.5950738 54.949837,20.4241439 C54.9074208,20.253214 54.8630773,20.0860433 54.8168051,19.9226268 C54.7705329,19.7592103 54.7261894,19.6070662 54.6837733,19.4661899 C54.6413571,19.3253136 54.6027975,19.2022834 54.5680934,19.0970958 C54.5333892,18.9919082 54.5083255,18.9130186 54.4929015,18.8604248 L55.3720686,18.5955787 Z M55.7422442,16.1668834 L54.8919971,16.9952319 L54.0359659,16.1612484 L54.8862131,15.3328999 L55.7422442,16.1668834 Z" id="دریافت-از" fill="#F1F1F1"></path>
                    <g id="cafebazaar" transform="translate(101.000000, 7.000000)" fill="#FFFFFF">
                        <path d="M16.1457391,6.59850587 C16.5960315,7.56414088 16.9878444,8.5547492 17.3065578,9.42049093 C18.0609438,9.49541089 18.5521719,9.55923159 18.5609438,9.55923159 C19.0492479,9.6036286 19.540476,9.66744931 20.0170842,9.7284952 C20.657435,9.81173959 21.3211777,9.8977588 21.9761485,9.93383138 C23.0053883,9.99210245 23.6281953,9.7923159 23.9878444,9.28729989 C23.9790725,9.26510139 23.9703005,9.24567769 23.9586046,9.22347919 C23.6164994,8.52145144 22.1749789,7.03137673 16.1457391,6.59850587 L16.1457391,6.59850587 L16.1457391,6.59850587 Z M12.3153298,0.552187834 C10.5141602,0.552187834 8.75100229,3.313127 7.70129469,5.86318036 C8.0989555,5.82433298 8.51708416,5.78826041 8.95568065,5.76051227 C9.911821,3.81814301 11.0872596,2.17545358 12.3153298,2.17545358 C13.537552,2.17545358 14.7363824,3.80981857 15.7276105,5.74108858 C16.1779029,5.76883671 16.6077274,5.80213447 17.0170842,5.83820704 C15.9235169,3.29925293 14.1135754,0.552187834 12.3153298,0.552187834 L12.3153298,0.552187834 Z M0.958604627,9.28452508 C0.946908721,9.3094984 0.943984744,9.33169691 0.935212814,9.35667022 C1.30070989,9.81451441 1.90889702,9.98932764 2.89135317,9.93383138 C3.54339995,9.8977588 4.20421866,9.81173959 4.84164556,9.7284952 C5.31825375,9.66744931 5.8124058,9.6036286 6.29778591,9.55923159 C6.30948182,9.55645678 6.75392626,9.50096051 7.44398474,9.43159018 C7.74515433,8.56862327 8.11942334,7.58078975 8.55217188,6.61792956 C2.61357539,7.08132337 1.25977422,8.57972252 0.958604627,9.28452508 L0.958604627,9.28452508 L0.958604627,9.28452508 Z M15.0609438,5.70779082 C14.1808268,4.02902882 13.2042187,2.72764141 12.3153298,2.72764141 C11.4235169,2.72764141 10.4703005,4.03735326 9.61942334,5.71889007 C10.4936923,5.67449306 11.4410608,5.64951974 12.4732245,5.64951974 L12.5053883,5.64951974 C13.4235169,5.64951974 14.2714701,5.67171825 15.0609438,5.70779082 L15.0609438,5.70779082 L15.0609438,5.70779082 Z M12.5053883,6.4791889 L12.4761485,6.4791889 C11.2656222,6.4791889 10.1837508,6.51248666 9.21299059,6.57353255 C8.79486194,7.48922092 8.41474498,8.46318036 8.0872596,9.37054429 C9.30363387,9.25677695 10.9556807,9.13468517 12.4352128,9.13468517 C13.8679614,9.13468517 15.4615286,9.24845251 16.663283,9.35944504 C16.3211777,8.4493063 15.917669,7.47534685 15.4849204,6.55688367 C14.5872596,6.50693703 13.5989555,6.4791889 12.5053883,6.4791889 L12.5053883,6.4791889 L12.5053883,6.4791889 Z M0.148663107,8.97652081 C0.642815153,7.82219851 2.30948182,6.49861259 7.0492479,5.93255069 C7.70129469,4.28986126 9.65743504,0 12.3153298,0 C14.9673766,0 16.9936923,4.27043757 17.6720549,5.90480256 C22.4644526,6.44311633 24.1983707,7.74172892 24.7510023,8.87385272 C24.9819964,9.34834578 24.9586046,9.7090715 24.9410608,9.82838847 C24.9235169,10.0864461 24.7159146,12.6448239 23.6954467,16.0217716 C22.7626982,19.1240128 21.2100666,22.5842049 20.157435,23.8994664 C19.3328736,24.9261473 17.7773181,25.9750267 12.4761485,25.9750267 C7.17790287,25.9750267 5.62234732,24.9261473 4.79778591,23.8994664 C3.74807831,22.5897545 2.19252276,19.1295624 1.25392626,16.0245464 C0.239306382,12.6503735 0.0317040423,10.0947705 0.0112362061,9.82838847 C-0.00630765356,9.71739594 -0.0267754898,9.40106724 0.148663107,8.97652081 L0.148663107,8.97652081 L0.148663107,8.97652081 Z" id="Shape"></path>
                    </g>
                </g>
            </g>
        </g>
    </g>
</svg>