<?xml version="1.0" encoding="utf-8"?>
<!-- Generator: Adobe Illustrator 21.0.2, SVG Export Plug-In . SVG Version: 6.00 Build 0)  -->
<svg version="1.1" id="Layer_1" xmlns="http://www.w3.org/2000/svg" xmlns:xlink="http://www.w3.org/1999/xlink" x="0px" y="0px"
	 viewBox="0 0 1329.8 394" style="enable-background:new 0 0 1329.8 394;" xml:space="preserve">
<style type="text/css">
	.st0{fill:#FFFFFF;}
	.st1{fill:#C0C5C9;}
	.st2{fill:#314F6A;}
	.st3{fill:#00ADB5;}
</style>
<path id="Shape_7_" class="st0" d="M49.2,394C21.7,394,0,372.3,0,344.8V49.2C0,21.7,21.7,0,49.2,0h1231.2
	c27.6,0,49.2,21.7,49.2,49.2v295.5c0,26.6-21.7,49.2-49.2,49.2L49.2,394L49.2,394z"/>
<path id="Shape_6_" class="st1" d="M1280.5,7.9c22.7,0,41.4,18.7,41.4,41.4v295.5c0,22.7-18.7,41.4-41.4,41.4H49.2
	c-22.7,0-41.4-18.7-41.4-41.4V49.2c0-22.7,18.7-41.4,41.4-41.4L1280.5,7.9L1280.5,7.9z M1280.5,0H49.2C21.7,0,0,21.7,0,49.2v295.5
	C0,372.3,21.7,394,49.2,394h1231.2c27.6,0,49.2-21.7,49.2-49.2V49.2C1329.8,22.7,1308.1,0,1280.5,0L1280.5,0L1280.5,0z"/>
<g>
	<path class="st2" d="M1070.7,224.6c-8.9-11.8-14.8-26.6-14.8-42.4c0-37.4,30.5-68,68-68s68,30.5,68,68c0,27.6-16.7,52.2-40.4,62.1
		l41.4,35.5c31.5-30.5,48.3-62.1,48.3-98.5c0-31.5-11.8-60.1-34.5-82.7C1185,76.8,1155.4,64,1123.9,64c-64,0-117.2,52.2-117.2,117.2
		c0,40.4,19.7,73.9,58.1,107.4c28.6,25.6,56.1,39.4,57.1,39.4l2,1l2-1c1,0,16.7-7.9,36.4-22.7
		C1139.6,288.6,1090.4,250.2,1070.7,224.6"/>
	<path class="st3" d="M1156.4,182.2c0,17.7-14.8,32.5-32.5,32.5s-32.5-14.8-32.5-32.5s14.8-32.5,32.5-32.5
		S1156.4,163.5,1156.4,182.2"/>
</g>
<path class="st3" d="M175.3,205.9c-11.8,0-21.7,4.9-27.6,7.9l5.9,10.8c4.9-3,11.8-5.9,19.7-5.9c9.9,0,14.8,4.9,14.8,12.8v6.9
	c-3-2-8.9-4.9-16.7-4.9c-16.7,0-27.6,9.8-27.6,23.6c0,14.8,11.8,23.6,26.6,23.6c8.9,0,14.8-3,18.7-6.9l1,4.9h12.8v-46.3
	C203.9,216.7,197,205.9,175.3,205.9z M174.3,268.9c-8.9,0-14.8-4.9-14.8-11.8s5.9-11.8,14.8-11.8c8.9,0,14.8,4.9,14.8,11.8
	C189.1,264,183.2,268.9,174.3,268.9z M256.1,205.9c-13.8,0-20.7,8.9-22.7,10.8v-9.8h-13.8v96.5h14.8v-34.5c2,3,9.9,10.8,22.7,10.8
	c20.7,0,33.5-15.8,33.5-37.4C291.6,221.6,276.8,205.9,256.1,205.9z M255.1,266.9c-11.8,0-21.7-8.9-21.7-24.6
	c0-12.8,7.9-23.6,20.7-23.6c11.8,0,21.7,9.8,21.7,23.6C275.8,257.1,267.9,266.9,255.1,266.9z M340.8,205.9
	c-13.8,0-20.7,8.9-22.7,10.8v-9.8h-13.8v96.5h14.8v-34.5c2,3,9.9,10.8,22.7,10.8c20.7,0,33.5-15.8,33.5-37.4
	C375.3,221.6,360.5,205.9,340.8,205.9z M338.8,266.9c-11.8,0-21.7-8.9-21.7-24.6c0-12.8,7.9-23.6,20.7-23.6
	c11.8,0,21.7,9.8,21.7,23.6C360.5,257.1,351.6,266.9,338.8,266.9z M401.9,270.9c0,4.9-3.9,9.9-9.9,9.9c-4.9,0-9.9-3.9-9.9-9.9
	c0-4.9,3.9-9.9,9.9-9.9S401.9,265,401.9,270.9z M463,258.1c0,12.8-10.8,21.7-25.6,21.7c-14.8,0-21.7-7.9-25.6-13.8l8.9-6.9
	c3,4.9,7.9,8.9,16.7,8.9c5.9,0,10.8-3,10.8-8.9c0-13.8-34.5-8.9-34.5-33.5c0-12.8,10.8-19.7,24.6-19.7s20.7,7.9,23.6,12.8l-9.9,6.9
	c-2-3-5.9-7.9-13.8-7.9c-5.9,0-9.9,3-9.9,7.9C427.5,239.4,463,233.4,463,258.1z M533.9,235.4v42.4h-14.8v-44.3
	c0-9.9-5.9-15.8-14.8-15.8c-9.9,0-15.8,6.9-15.8,16.7v43.3h-14.8v-70.9h14.8v9.8c3-5.9,10.8-10.8,19.7-10.8
	C527,205.9,533.9,220.6,533.9,235.4z M576.2,205.9c-11.8,0-21.7,4.9-27.6,7.9l5.9,10.8c4.9-3,11.8-5.9,19.7-5.9
	c9.8,0,14.8,4.9,14.8,12.8v6.9c-3-2-8.9-4.9-16.7-4.9c-16.7,0-27.6,9.8-27.6,23.6c0,14.8,11.8,23.6,26.6,23.6c8.9,0,14.8-3,18.7-6.9
	l1,4.9h12.8v-46.3C604.8,216.7,597.9,205.9,576.2,205.9z M575.2,268.9c-8.9,0-14.8-4.9-14.8-11.8s5.9-11.8,14.8-11.8
	c8.9,0,14.8,4.9,14.8,11.8C590,264,584.1,268.9,575.2,268.9z M657,205.9c-13.8,0-20.7,8.9-22.7,10.8v-9.8h-13.8v96.5h14.8v-34.5
	c2,3,9.8,10.8,22.7,10.8c20.7,0,33.5-15.8,33.5-37.4C692.5,221.6,677.7,205.9,657,205.9z M656,266.9c-11.8,0-21.7-8.9-21.7-24.6
	c0-12.8,7.9-23.6,20.7-23.6c11.8,0,21.7,9.8,21.7,23.6C676.7,257.1,668.8,266.9,656,266.9z M741.7,205.9c-13.8,0-20.7,8.9-22.7,10.8
	v-9.8h-13.8v96.5H719v-34.5c2,3,9.9,10.8,22.7,10.8c20.7,0,33.5-15.8,33.5-37.4C776.2,221.6,761.4,205.9,741.7,205.9z M739.7,266.9
	c-11.8,0-21.7-8.9-21.7-24.6c0-12.8,7.9-23.6,20.7-23.6c11.8,0,21.7,9.8,21.7,23.6C761.4,257.1,752.5,266.9,739.7,266.9z
	 M802.8,270.9c0,4.9-3.9,9.9-9.9,9.9c-4.9,0-9.8-3.9-9.8-9.9c0-4.9,3.9-9.9,9.8-9.9S802.8,265,802.8,270.9z M833.3,190.1
	c0,4.9-3.9,8.9-8.9,8.9c-4.9,0-8.9-3.9-8.9-8.9s3.9-8.9,8.9-8.9C829.4,180.3,833.3,184.2,833.3,190.1z M817.5,207.8h14.8v70.9h-14.8
	V207.8z M883.5,205.9v14.8c-15.8,0-19.7,11.8-19.7,27.6v30.5H849v-70.9h14.8v10.8C865.8,211.8,873.7,205.9,883.5,205.9z"/>
<g>
	<path class="st2" d="M431.8,134.9c-2.4,0-4.8-0.7-7.2-2.2c0,0.1,0,0.3,0,0.5s0,0.4,0,0.7c0,0.2,0,0.5,0,0.7c0,0.2,0,0.4,0,0.5
		c0,1.2-0.1,2.3-0.2,3.6c-0.2,1.2-0.4,2.4-0.8,3.6c-0.7,2-1.8,3.8-3.1,5.2c-1.3,1.5-2.8,2.7-4.5,3.6s-3.5,1.7-5.4,2.1
		c-1.9,0.5-3.9,0.7-5.8,0.7c-5,0-9.1-1.1-12-3.4c-3-2.3-4.9-5.7-5.8-10.4v0c-0.3-1.6-0.3-3.3-0.2-5.1c0.1-1.7,0.4-3.4,0.9-5.1
		c0.4-1.7,1-3.3,1.6-4.8s1.3-2.9,2-4.1c0.7,0.5,1.3,0.9,1.8,1.3c0.5,0.4,1.1,0.8,1.7,1.3c-0.3,0.4-0.6,1-0.9,1.7
		c-0.3,0.7-0.6,1.5-0.9,2.4c-0.3,0.9-0.6,1.8-0.9,2.8c-0.3,1-0.5,2-0.7,3c-0.2,1-0.3,2-0.3,3c0,1,0,1.9,0.2,2.8v-0.1
		c-0.1,0.6,0,1.3,0.3,2.1c0.2,0.7,0.6,1.5,1.1,2.2c0.5,0.7,1.1,1.5,1.9,2.2c0.8,0.7,1.6,1.3,2.6,1.9s2.1,1,3.4,1.3
		c1.2,0.3,2.6,0.5,4.1,0.5c1.9,0,3.7-0.2,5.3-0.6c1.6-0.4,3.1-1,4.3-1.7c1.3-0.7,2.3-1.7,3.2-2.7c0.9-1.1,1.5-2.2,1.9-3.6
		c0.3-1,0.5-1.9,0.7-2.9c0.1-0.9,0.2-1.9,0.2-2.8c0-1.1-0.1-2.2-0.2-3.3c-0.2-1.1-0.4-2.1-0.7-3.1c-0.3-1-0.6-1.9-0.9-2.8
		c-0.3-0.9-0.7-1.7-1-2.4c-0.4-0.8-0.6-1.3-0.8-1.7c-0.2-0.4-0.3-0.7-0.5-0.9l3.7-2.3c0.1,0.1,0.2,0.4,0.5,0.8
		c0.2,0.5,0.6,1.3,1.2,2.4c1.1,2,2,3.6,3,4.7c0.9,1.2,1.8,2,2.7,2.6c0.8,0.6,1.7,1,2.4,1.1c0.8,0.2,1.5,0.2,2.2,0.2
		c0.6,0,1.1,0.2,1.6,0.6c0.4,0.4,0.6,0.9,0.6,1.5c0,0.6-0.2,1.1-0.6,1.5S432.4,134.9,431.8,134.9z M409.9,119.5l-4.1,4.1l-4.1-4.1
		l4.1-4.1L409.9,119.5z"/>
	<path class="st2" d="M429.9,132.7c0-0.6,0.2-1.1,0.7-1.5c0.5-0.4,1-0.6,1.5-0.7h0.2c0.8,0,1.6-0.2,2.4-0.7c0.7-0.4,1.4-1,2.1-1.7
		c0.7-0.7,1.3-1.4,1.8-2.3s1-1.6,1.4-2.4c0.4-0.7,0.7-1.5,1.1-2.2c0.3-0.7,0.6-1.4,0.8-2.1c0.2-0.7,0.4-1.2,0.6-1.8
		c0.2-0.5,0.3-0.9,0.4-1.2v-0.1c0.7,0.2,1.4,0.4,2.1,0.6c0.7,0.2,1.4,0.4,2.1,0.6c0,0.1-0.1,0.1-0.1,0.2l0,0c-0.1,0.5-0.3,1.1-0.5,2
		c-0.2,0.8-0.3,1.7-0.5,2.7c-0.1,0.6-0.1,1.2-0.2,1.8c-0.1,0.6-0.1,1.3,0,1.9c0,0.6,0.1,1.3,0.2,1.9c0.1,0.6,0.4,1.2,0.7,1.7v0
		c0.4,0.6,0.9,1,1.6,1.1c0.5,0.1,1,0.1,1.6,0c0.5-0.2,1-0.4,1.5-0.7c0.9-0.6,1.7-1.7,2.6-3.1c0.8-1.4,1.6-3.1,2.2-5.1v0
		c0.3-0.9,0.6-1.8,0.8-2.8c0.2-0.9,0.4-1.9,0.7-3l4.3,0.8c-0.2,1-0.3,1.9-0.4,2.7s-0.1,1.6-0.2,2.4c0,0.2,0,0.4,0,0.6s0,0.4,0,0.6
		c0,1.4,0.1,2.7,0.4,3.8c0.3,1.1,0.6,1.9,1.1,2.5c0.2,0.3,0.6,0.6,1,0.8c0.4,0.2,1,0.4,1.8,0.4c1.1,0,2.1-0.4,2.7-1.2v0
		c0.7-0.7,1.2-1.8,1.6-3.2c0.4-1.4,0.7-3,0.8-4.9c0-0.4,0-0.7,0-1.1c0-0.4,0-0.7,0-1c0-0.5,0-1-0.1-1.5c0-0.5-0.1-1-0.1-1.6l4.4-0.4
		c0.1,1.1,0.2,2.3,0.4,3.5c0.2,1.3,0.5,2.7,1,4.3c0.8,2.4,1.7,4.1,2.8,5.3c1.1,1.2,2.4,1.8,3.8,1.8h0.2c0.6,0,1.1,0.2,1.5,0.6
		c0.4,0.4,0.6,0.9,0.6,1.5c0,0.6-0.2,1.1-0.6,1.5s-0.9,0.6-1.5,0.6h-0.2c-1.4,0-2.7-0.3-4-0.9c-1.2-0.6-2.3-1.4-3.3-2.6
		c-0.3-0.3-0.6-0.7-1-1.2c-0.3-0.5-0.7-1-1.1-1.7c-0.4,0.8-0.7,1.6-1.1,2.2c-0.4,0.6-0.7,1.1-1.1,1.5c-0.8,0.9-1.7,1.6-2.7,2
		c-1,0.5-2.1,0.7-3.3,0.7c-1.3,0-2.4-0.2-3.5-0.7c-1.1-0.5-1.9-1.2-2.7-2.1c-0.3-0.3-0.5-0.7-0.8-1.2c-0.3-0.5-0.6-1.1-0.9-1.9
		c-1.4,2-2.6,3.5-3.8,4.4c-0.8,0.5-1.6,0.9-2.4,1.2c-0.8,0.3-1.7,0.4-2.5,0.4c-1,0-1.8-0.1-2.6-0.4c-0.7-0.3-1.4-0.7-2-1.2
		c-0.6-0.5-1.1-1.2-1.5-1.9c-0.4-0.8-0.9-1.6-1.2-2.5c-0.9,1.3-1.7,2.2-2.4,2.8c-2.2,2.1-4.6,3.2-7.2,3.2h-0.2
		c-0.6,0-1.1-0.2-1.5-0.6C430.1,133.8,429.9,133.3,429.9,132.7z M450,104.2l4-4.1l4.1,4.1l-4,4.1L450,104.2z M456.1,96.2l3.7-3.7
		l3.7,3.7l-3.7,3.7L456.1,96.2z M461.2,104.3l4-4l4.1,4.1l-4,4L461.2,104.3z"/>
	<path class="st2" d="M481.7,132.7c0-0.6,0.2-1.1,0.6-1.5c0.4-0.4,0.9-0.6,1.5-0.6h2.1c1.6,0,3.2-0.1,4.7-0.2c1.5-0.2,2.8-0.5,3.9-1
		c1.1-0.5,2-1.2,2.7-2.1c0.6-0.9,0.9-2.1,0.9-3.5c0-0.5,0-1-0.1-1.4c0-0.5-0.1-0.9-0.2-1.4s-0.2-1-0.3-1.6c-0.1-0.6-0.3-1.2-0.5-1.9
		c0.8-0.2,1.5-0.4,2.1-0.6c0.6-0.2,1.3-0.4,2-0.6c0.2,0.8,0.4,1.5,0.5,2.2c0.1,0.7,0.2,1.3,0.3,1.9c0.1,0.6,0.2,1.2,0.2,1.9
		c0.1,0.6,0.1,1.3,0.2,2c0.1,0.8,0.2,1.5,0.3,2.3c0.1,0.7,0.4,1.4,0.7,2c0.3,0.6,0.8,1.1,1.5,1.5c0.6,0.4,1.5,0.6,2.5,0.6
		c0.6,0,1.1,0.2,1.6,0.6c0.4,0.4,0.7,0.9,0.7,1.5s-0.2,1.1-0.6,1.5c-0.4,0.4-0.9,0.6-1.5,0.6c-0.9,0-1.7-0.1-2.4-0.3
		c-0.7-0.2-1.4-0.5-2-0.8s-1.2-0.7-1.7-1.2c-0.5-0.5-1-1-1.4-1.5c-0.7,0.7-1.6,1.3-2.7,1.8c-1.1,0.5-2.2,0.9-3.5,1.2
		c-1.3,0.3-2.6,0.5-3.9,0.7s-2.7,0.2-4,0.2h-2.1c-0.6,0-1.1-0.2-1.5-0.6C481.9,133.8,481.7,133.3,481.7,132.7z M492.8,145.9l-4,4
		l-4.1-4.1l4-4.1L492.8,145.9z M502.6,146l-4,4l-4.1-4.1l4-4L502.6,146z"/>
	<path class="st2" d="M505.6,132.7c0-0.6,0.2-1.1,0.7-1.5c0.4-0.4,0.9-0.6,1.5-0.6h0.2h9.1c0.8,0,1.6-0.2,2.4-0.5
		c0.8-0.3,1.5-0.8,2.2-1.3c0.7-0.5,1.2-1.2,1.6-1.9c0.4-0.7,0.7-1.4,0.8-2.1c0.1-1.1-0.1-2.2-0.5-3.4c-0.4-1.2-0.9-2.4-1.5-3.6
		c-0.7-1.2-1.4-2.4-2.3-3.6c-0.9-1.2-1.8-2.3-2.7-3.4c-1-1.1-1.9-2-2.9-2.9c-1-0.9-1.9-1.7-2.7-2.3c0.1-0.9,0.2-1.9,0.3-2.8
		c0.1-0.9,0.2-1.8,0.3-2.7l23.7-10.2c0.3,0.7,0.6,1.4,0.9,2c0.3,0.7,0.6,1.3,0.9,2l-22.4,9.4c1.7,1.4,3.2,2.8,4.5,4.2
		c1.2,1.3,2.3,2.7,3.3,4c0.9,1.3,1.8,2.6,2.5,3.9c0.7,1.3,1.4,2.5,2.1,3.8c0.5,0.9,0.9,1.7,1.4,2.6c0.5,0.9,1,1.8,1.5,2.6
		c0.6,0.9,1.2,1.8,1.8,2.5c0.6,0.7,1.3,1.4,2.1,1.9c0.8,0.5,1.6,0.9,2.5,1.2c0.9,0.3,1.9,0.4,3,0.5h1.2c0.6,0,1.1,0.2,1.5,0.6
		s0.6,0.9,0.6,1.5c0,0.6-0.2,1.1-0.6,1.5s-0.9,0.6-1.5,0.6h-0.2c-1.3,0-2.4-0.1-3.4-0.2c-1-0.2-1.9-0.4-2.9-0.7h0
		c-1.3-0.5-2.5-1.2-3.6-2.2c-1.2-1-2.2-2.1-3.2-3.4c-0.4,0.8-0.9,1.5-1.3,2.1c-0.4,0.6-0.9,1.1-1.4,1.6h0c-1.2,1-2.5,1.7-3.9,2.1
		s-2.9,0.6-4.3,0.7h0h-9c-0.6,0-1.1-0.2-1.5-0.6C505.8,133.8,505.6,133.3,505.6,132.7z"/>
	<path class="st2" d="M537.9,132.7c0-0.6,0.2-1.1,0.6-1.5c0.4-0.4,0.9-0.6,1.5-0.6h2.1c1.6,0,3.2-0.1,4.7-0.2c1.5-0.2,2.8-0.5,3.9-1
		c1.1-0.5,2-1.2,2.7-2.1c0.6-0.9,0.9-2.1,0.9-3.5c0-0.5,0-1-0.1-1.4c0-0.5-0.1-0.9-0.2-1.4s-0.2-1-0.3-1.6c-0.1-0.6-0.3-1.2-0.5-1.9
		c0.8-0.2,1.5-0.4,2.1-0.6c0.6-0.2,1.3-0.4,2-0.6c0.2,0.8,0.4,1.5,0.5,2.2c0.1,0.7,0.2,1.3,0.3,1.9c0.1,0.6,0.2,1.2,0.2,1.9
		c0.1,0.6,0.1,1.3,0.2,2c0.1,0.8,0.2,1.5,0.3,2.3c0.1,0.7,0.4,1.4,0.7,2c0.3,0.6,0.8,1.1,1.5,1.5c0.6,0.4,1.5,0.6,2.5,0.6
		c0.6,0,1.1,0.2,1.6,0.6c0.4,0.4,0.7,0.9,0.7,1.5s-0.2,1.1-0.6,1.5c-0.4,0.4-0.9,0.6-1.5,0.6c-0.9,0-1.7-0.1-2.4-0.3
		c-0.7-0.2-1.4-0.5-2-0.8s-1.2-0.7-1.7-1.2c-0.5-0.5-1-1-1.4-1.5c-0.7,0.7-1.6,1.3-2.7,1.8c-1.1,0.5-2.2,0.9-3.5,1.2
		c-1.3,0.3-2.6,0.5-3.9,0.7s-2.7,0.2-4,0.2h-2.1c-0.6,0-1.1-0.2-1.5-0.6C538.1,133.8,537.9,133.3,537.9,132.7z M549,145.9l-4,4
		l-4.1-4.1l4-4.1L549,145.9z M558.8,146l-4,4l-4.1-4.1l4-4L558.8,146z"/>
	<path class="st2" d="M561.8,132.7c0-0.6,0.2-1.1,0.6-1.5c0.4-0.4,0.9-0.6,1.5-0.6h0.2h2.4c0.6,0,1.1,0,1.5-0.1
		c0.4,0,0.8-0.1,1.1-0.2c0.3-0.1,0.5-0.1,0.8-0.2c0.2-0.1,0.4-0.2,0.6-0.4c0.3-0.2,0.5-0.6,0.7-0.9c0.2-0.4,0.4-0.8,0.5-1.3
		s0.2-0.9,0.3-1.4c0.1-0.5,0.1-1,0.2-1.5c0-0.5,0-1.3,0-2.4c0-1.1,0-2.4,0.1-3.8c0-1.4,0-3,0.1-4.8c0-1.7,0-3.5,0-5.2
		c0-1.4,0-2.8,0-4.2c0-1.4,0-2.7-0.1-4c0-1.3-0.1-2.4-0.1-3.5c-0.1-1.1-0.1-2-0.2-2.8c0.8-0.1,1.5-0.2,2.2-0.3
		c0.7-0.1,1.4-0.2,2.1-0.3c0.1,0.9,0.2,1.9,0.2,3.1c0.1,1.2,0.1,2.5,0.2,3.9c0,1.4,0.1,2.8,0.1,4.3c0,1.5,0,2.9,0,4.4
		c0,2.9,0,5.7-0.1,8.4c0,2.7-0.1,5.1-0.1,7.3c0,0.2,0,0.5,0,0.8c0,0.3,0.1,0.6,0.1,0.9c0.1,0.3,0.2,0.7,0.3,1c0.1,0.3,0.3,0.7,0.5,1
		c0.2,0.3,0.4,0.6,0.7,0.9c0.3,0.3,0.6,0.5,1,0.7c0.4,0.2,0.8,0.3,1.3,0.5c0.5,0.1,1.1,0.2,1.8,0.2c0.6,0,1.1,0.2,1.6,0.6
		c0.4,0.4,0.7,0.9,0.7,1.5c0,0.6-0.2,1.1-0.7,1.5c-0.4,0.4-1,0.6-1.6,0.6c-0.9,0-1.7-0.1-2.5-0.2c-0.8-0.2-1.5-0.4-2.1-0.7
		c-0.6-0.3-1.2-0.6-1.7-1s-1-0.8-1.4-1.2c-0.3,0.3-0.6,0.6-0.8,0.8s-0.4,0.4-0.6,0.6c-0.5,0.4-1,0.7-1.5,0.9c-0.5,0.2-1,0.4-1.6,0.5
		c-0.5,0.1-1,0.2-1.5,0.2c-0.5,0-1,0.1-1.4,0.1h-3H564c-0.6,0-1.1-0.2-1.5-0.6C562,133.8,561.8,133.3,561.8,132.7z"/>
	<path class="st2" d="M580.1,132.7c0-0.6,0.2-1.1,0.6-1.5c0.4-0.4,0.9-0.6,1.5-0.6h3.1c1,0,2.2,0,3.4-0.1c1.2,0,2.5-0.2,3.6-0.4
		c1.2-0.2,2.2-0.6,3.1-1.1c0.9-0.5,1.6-1.2,2-2v0c0.3-0.6,0.4-1.4,0.4-2.4c0-0.9-0.1-1.8-0.4-2.9c-0.3-1.1-0.6-2.3-1-3.6
		c-0.1-0.5-0.3-1-0.5-1.5c-0.2-0.5-0.4-1.1-0.6-1.6c-0.2-0.5-0.4-1-0.6-1.4s-0.3-0.8-0.5-1l3.9-2c0.1,0.3,0.3,0.6,0.4,1
		c0.2,0.4,0.4,0.9,0.6,1.4c0.2,0.5,0.4,1.1,0.7,1.7c0.2,0.6,0.5,1.3,0.7,2c0.5,1.5,0.8,2.9,1.1,4.2c0.2,1.3,0.4,2.5,0.4,3.6
		c0,1.6-0.3,3-0.8,4.2c-0.6,1.3-1.5,2.5-2.6,3.5c-1.1,1-2.5,1.7-4,2.1c-0.5,0.1-1.1,0.3-1.9,0.3c-0.8,0.1-1.5,0.1-2.3,0.2
		c-0.8,0-1.6,0.1-2.3,0.1c-0.7,0-1.3,0-1.7,0h-4.3c-0.6,0-1.1-0.2-1.5-0.6C580.3,133.8,580.1,133.3,580.1,132.7z M586.9,141l4,4.1
		l-4.1,4.1l-4-4.1L586.9,141z M592.7,149.5l3.7,3.7l-3.7,3.7l-3.7-3.7L592.7,149.5z M598.2,141l4,4l-4.1,4.1l-4-4L598.2,141z"/>
	<path class="st2" d="M611.1,134.9c0.1-1.5,0.2-3,0.2-4.4s0.1-2.8,0.2-4.1c0-1.3,0.1-2.6,0.1-3.9c0-1.3,0-2.6,0-3.8
		c0-3.5-0.1-6.6-0.2-9.5c-0.1-2.9-0.3-5.4-0.4-7.6c-0.2-2.2-0.3-4-0.5-5.4s-0.3-2.5-0.3-3l4.3-0.7c0,0,0,0.1,0,0.2
		c0,0.1,0,0.2,0.1,0.4c0,0.2,0.1,0.5,0.1,0.8c0,0.3,0.1,0.8,0.2,1.3c0.1,1.1,0.2,2.2,0.3,3.4c0.1,1.2,0.2,2.5,0.3,3.9
		c0.1,1.4,0.2,2.7,0.2,4c0.1,1.3,0.1,2.5,0.1,3.6c0,1.3,0.1,2.6,0.1,4.1s0,2.9,0,4.5c0,2.5,0,5.1-0.1,7.8s-0.2,5.6-0.4,8.6
		L611.1,134.9z"/>
	<path class="st2" d="M665.6,134.9c-3.2,0-6.1-0.2-8.8-0.6s-5-0.9-6.9-1.6c-1.8-0.7-3.3-1.6-4.6-2.6c-1.3-1-2.2-2.2-2.9-3.5
		c-0.7-1.4-1.1-3-1.1-4.7c0-0.8,0.1-1.7,0.3-2.6s0.4-1.8,0.8-2.7c0.4-0.9,0.7-1.8,1.1-2.5c0.4-0.7,0.7-1.3,0.9-1.6l3.5,2.6
		c-0.1,0.1-0.1,0.1-0.1,0.2c0,0.1-0.1,0.2-0.2,0.4c-0.1,0.2-0.2,0.5-0.4,0.9c-0.2,0.4-0.5,1-0.8,1.7c-0.2,0.6-0.4,1.3-0.6,1.9
		c-0.1,0.6-0.2,1.2-0.2,1.7c0,0.5,0.1,1,0.2,1.4c0.1,0.5,0.3,0.9,0.4,1.3c0.5,0.9,1.3,1.8,2.5,2.5c1.1,0.7,2.5,1.3,4.2,1.9
		c1.7,0.5,3.5,0.9,5.7,1.2c2.1,0.3,4.5,0.4,7.1,0.4c1.5,0,3.1-0.1,4.9-0.2s3.6-0.4,5.5-0.7c1.9-0.3,3.7-0.8,5.6-1.4
		c1.9-0.6,3.6-1.3,5.2-2.2c-0.1-1.2-0.4-2.4-0.8-3.7c-0.4-1.3-0.9-2.5-1.5-3.6c-0.5-1.1-1.1-2.1-1.6-3c-0.5-0.9-0.9-1.5-1.2-2
		l3.7-2.4c0.2,0.4,0.6,1,1,1.7c0.5,0.8,0.9,1.6,1.4,2.6s0.9,2.1,1.4,3.2c0.5,1.2,0.8,2.3,1.1,3.5c0.1,0.6,0.2,1.1,0.3,1.6
		c0.1,0.5,0.1,1,0.1,1.4c0,0.8-0.2,1.6-0.7,2.3c-0.5,0.7-1.2,1.4-2.2,2.1c-1.3,0.7-2.8,1.4-4.7,2c-1.8,0.6-3.8,1.2-5.8,1.6
		c-2,0.4-4.1,0.8-6.2,1C669.2,134.8,667.3,134.9,665.6,134.9z M670,145.4l-4.1,4.1l-4.1-4.1l4.1-4.1L670,145.4z"/>
	<path class="st2" d="M695.9,150c2.8-0.6,5.3-1.5,7.6-2.5c2.2-1.1,4.2-2.3,5.8-3.7c1.6-1.4,2.9-2.8,3.8-4.3c0.9-1.5,1.5-3,1.7-4.5
		h-2.1c-1.1,0.1-2.2,0-3.5,0c-1.3-0.1-2.5-0.3-3.7-0.6c-1.2-0.3-2.3-0.7-3.3-1.2c-1-0.5-1.8-1.2-2.3-2.1v0c-0.6-0.8-1-1.6-1.3-2.5
		c-0.3-0.9-0.4-1.9-0.4-3c0-0.8,0.1-1.7,0.3-2.6c0.2-0.9,0.4-1.7,0.7-2.6c0.3-0.8,0.6-1.7,1-2.4c0.4-0.8,0.8-1.4,1.3-2
		c0.8-1.1,1.8-1.9,2.9-2.5c1.1-0.6,2.1-0.9,3.2-0.9c2.5,0,4.7,1.1,6.8,3.4v0c0.8,0.9,1.5,1.9,2.1,3c0.6,1.1,1.2,2.3,1.6,3.6
		c0.4,1.3,0.8,2.6,1,4c0.2,1.4,0.3,2.8,0.3,4.3c0,2.1-0.3,4.1-0.8,6s-1.3,3.7-2.4,5.3c-1,1.6-2.2,3.1-3.6,4.5
		c-1.4,1.4-2.9,2.6-4.6,3.6c-1.7,1-3.4,1.9-5.3,2.6c-1.9,0.7-3.8,1.2-5.7,1.5L695.9,150z M707.5,116.9c-0.4,0-0.9,0.1-1.3,0.4
		c-0.5,0.3-0.9,0.6-1.3,1c-0.4,0.4-0.8,0.9-1.2,1.5c-0.4,0.6-0.7,1.2-0.9,1.8c-0.3,0.6-0.5,1.3-0.6,1.9c-0.1,0.6-0.2,1.3-0.2,1.9
		c0,0.6,0.1,1.2,0.3,1.7c0.2,0.5,0.4,0.9,0.7,1.3v0c0.6,0.6,1.2,1,2,1.3s1.4,0.5,2.2,0.7c0.7,0.1,1.5,0.2,2.2,0.2c0.7,0,1.5,0,2.1,0
		c0.6,0,1.2,0,1.9,0c0.7,0,1.2-0.1,1.7-0.1c-0.1-1.3-0.2-2.5-0.4-3.7c-0.2-1.2-0.5-2.2-0.9-3.2c-0.4-1-0.8-1.9-1.2-2.6
		c-0.5-0.8-0.9-1.5-1.4-2c-0.2-0.2-0.4-0.4-0.7-0.7c-0.3-0.2-0.5-0.4-0.8-0.6s-0.6-0.4-1-0.5S707.9,116.9,707.5,116.9z"/>
	<path class="st2" d="M755.3,131c-4.6,0-7.8-1.1-9.5-3.3c-0.5-0.6-0.8-1.3-1-2c-0.2-0.7-0.3-1.4-0.3-2.1c0-0.6,0-1.1,0.1-1.6
		c0.1-0.5,0.2-0.9,0.4-1.2c0.5-1,1.1-1.9,1.7-2.8c0.7-0.8,1.4-1.6,2.2-2.3c0.8-0.7,1.6-1.3,2.5-1.8c0.8-0.5,1.7-1,2.5-1.4
		c0.8-0.4,1.6-0.8,2.3-1.1s1.3-0.5,1.9-0.7l-0.4-4l4.3-0.9c0,0.1,0.1,0.5,0.1,1s0.1,1.1,0.2,1.7c0.1,0.7,0.1,1.4,0.2,2.1
		c0.1,0.7,0.1,1.4,0.2,2.1c0.1,0.7,0.1,1.2,0.2,1.7c0.1,0.5,0.1,0.8,0.1,0.9v0c0.3,2.4,0.5,4.4,0.8,5.9s0.5,2.8,0.7,3.7
		c0.2,0.9,0.3,1.6,0.5,2c0.1,0.4,0.2,0.7,0.3,0.8v0c0.2,0.6,0.5,1,0.8,1.4c0.3,0.4,0.7,0.7,1.1,0.9s0.9,0.4,1.5,0.5
		c0.5,0.1,1.2,0.1,1.9,0.1c0.6,0,1.1,0.2,1.5,0.6c0.4,0.4,0.7,0.9,0.7,1.5c0,0.6-0.2,1.1-0.7,1.5s-0.9,0.6-1.5,0.6
		c-0.7,0-1.5-0.1-2.4-0.2c-0.9-0.1-1.8-0.4-2.7-0.8h0c-1.4-0.6-2.6-1.8-3.6-3.5C759.2,130.8,757.1,131,755.3,131z M757.8,115.5
		c-0.5,0.2-1,0.4-1.6,0.7c-0.6,0.3-1.3,0.6-2,1c-0.7,0.4-1.3,0.8-2,1.2c-0.7,0.4-1.3,0.9-1.8,1.4c-0.5,0.5-1,1.1-1.3,1.6
		c-0.3,0.6-0.5,1.2-0.5,1.9c0,0.7,0.2,1.2,0.6,1.7c0.4,0.4,0.9,0.8,1.5,1.1c0.6,0.3,1.3,0.5,2.1,0.6s1.6,0.2,2.4,0.2
		c0.8,0,1.7-0.1,2.6-0.2c0.9-0.1,1.7-0.2,2.4-0.3c-0.3-1.3-0.5-2.8-0.8-4.7c-0.3-1.9-0.5-4-0.8-6.3L757.8,115.5z"/>
	<path class="st2" d="M768.3,132.7c0-0.6,0.2-1.1,0.6-1.5c0.4-0.4,0.9-0.7,1.6-0.7h5.1c2.5,0,4.9-0.2,7.2-0.7
		c2.3-0.5,4.6-1.1,6.7-1.8c2.2-0.8,4.3-1.6,6.4-2.6c2.1-1,4.1-1.9,6.1-2.9l1.7-0.8c-0.8-0.3-1.7-0.6-2.6-1.1c-1-0.4-1.9-0.9-2.9-1.4
		c-1-0.5-2-1-3.1-1.5c-1.1-0.5-2.1-1-3.1-1.4s-2-0.7-3-1c-1-0.3-1.9-0.4-2.8-0.4c-1,0-2,0.3-2.9,0.8c-0.9,0.5-1.7,1.1-2.4,1.9
		c-0.7,0.7-1.3,1.5-1.8,2.2c-0.5,0.7-0.8,1.3-1.1,1.8l-3.6-2.4c0.6-1.1,1.2-2.1,2-3.1c0.8-1,1.6-2,2.6-2.8c1-0.8,2-1.5,3.2-2
		c1.2-0.5,2.5-0.7,3.8-0.7c1.3,0,2.5,0.2,3.8,0.5c1.3,0.4,2.6,0.8,3.8,1.3s2.6,1.1,3.9,1.8c1.3,0.7,2.6,1.3,3.8,2
		c1.3,0.6,2.5,1.2,3.8,1.7s2.5,0.9,3.7,1.2c0.1,0.4,0.2,0.8,0.2,1.2c0.1,0.4,0.2,0.7,0.2,1c0.1,0.3,0.1,0.7,0.2,1
		c0.1,0.3,0.2,0.7,0.2,1.1c-0.3,0.1-0.6,0.3-0.7,0.3c-0.2,0.1-0.4,0.2-0.6,0.2s-0.5,0.2-0.8,0.4c-0.3,0.2-0.8,0.4-1.5,0.7
		c0.2,0.8,0.6,1.5,1.1,2.1c0.5,0.6,1.1,1.1,1.7,1.5c0.6,0.4,1.3,0.7,2,1c0.7,0.2,1.4,0.4,2,0.5c0.7,0.1,1.3,0.2,1.9,0.2
		s1,0.1,1.4,0.1h0.2h0.2c0.6,0,1.1,0.2,1.6,0.7c0.4,0.4,0.6,0.9,0.6,1.5c0,0.6-0.2,1.1-0.6,1.5c-0.4,0.4-0.9,0.6-1.6,0.6h-0.4
		c-1.8,0-3.4-0.2-4.9-0.5c-1.5-0.4-2.9-0.9-4.1-1.5c-1.2-0.7-2.2-1.5-3.1-2.4c-0.9-1-1.5-2-2-3.3c-1.9,1-3.9,1.9-6,2.9
		s-4.2,1.8-6.4,2.5c-2.2,0.7-4.5,1.3-6.9,1.8c-2.4,0.4-4.8,0.7-7.3,0.7l-5.1,0c-0.6,0-1.1-0.2-1.6-0.6
		C768.5,133.9,768.3,133.3,768.3,132.7z M789.5,101.5l-4.1,4.1l-4.1-4.1l4.1-4.1L789.5,101.5z"/>
	<path class="st2" d="M814.4,132.7c0-0.6,0.2-1.1,0.7-1.5c0.5-0.4,1-0.6,1.5-0.7h0.2c0.8,0,1.6-0.2,2.4-0.7c0.7-0.4,1.4-1,2.1-1.7
		c0.7-0.7,1.2-1.4,1.8-2.3c0.5-0.8,1-1.6,1.4-2.4c0.4-0.7,0.7-1.5,1.1-2.2c0.3-0.7,0.6-1.4,0.8-2.1c0.2-0.7,0.4-1.2,0.6-1.8
		c0.2-0.5,0.3-0.9,0.4-1.2v-0.1c0.7,0.2,1.4,0.4,2.1,0.6s1.4,0.4,2.1,0.6c0,0.1-0.1,0.1-0.1,0.2l0,0c-0.1,0.5-0.3,1.1-0.5,2
		c-0.2,0.8-0.3,1.7-0.5,2.7c-0.1,0.6-0.1,1.2-0.2,1.8c-0.1,0.6-0.1,1.3,0,1.9c0,0.6,0.1,1.3,0.2,1.9c0.1,0.6,0.4,1.2,0.7,1.7v0
		c0.4,0.6,0.9,1,1.6,1.1c0.5,0.1,1,0.1,1.6,0c0.5-0.2,1-0.4,1.5-0.7c0.9-0.6,1.7-1.7,2.6-3.1c0.8-1.4,1.6-3.1,2.2-5.1v0
		c0.3-0.9,0.6-1.8,0.8-2.8c0.2-0.9,0.4-1.9,0.7-3l4.3,0.8c-0.2,1-0.3,1.9-0.4,2.7c-0.1,0.8-0.1,1.6-0.2,2.4c0,0.2,0,0.4,0,0.6
		s0,0.4,0,0.6c0,1.4,0.1,2.7,0.4,3.8c0.3,1.1,0.6,1.9,1.1,2.5c0.2,0.3,0.6,0.6,1,0.8c0.4,0.2,1,0.4,1.8,0.4c1.1,0,2.1-0.4,2.7-1.2v0
		c0.7-0.7,1.2-1.8,1.6-3.2c0.4-1.4,0.7-3,0.8-4.9c0-0.4,0-0.7,0-1.1c0-0.4,0-0.7,0-1c0-0.5,0-1-0.1-1.5s-0.1-1-0.1-1.6l4.4-0.4
		c0.1,1.1,0.2,2.3,0.4,3.5c0.2,1.3,0.5,2.7,1,4.3c0.8,2.4,1.7,4.1,2.8,5.3c1.1,1.2,2.4,1.8,3.8,1.8h0.2c0.6,0,1.1,0.2,1.5,0.6
		c0.4,0.4,0.6,0.9,0.6,1.5c0,0.6-0.2,1.1-0.6,1.5c-0.4,0.4-0.9,0.6-1.5,0.6h-0.2c-1.4,0-2.7-0.3-4-0.9c-1.2-0.6-2.3-1.4-3.3-2.6
		c-0.3-0.3-0.6-0.7-1-1.2s-0.7-1-1.1-1.7c-0.4,0.8-0.7,1.6-1.1,2.2c-0.4,0.6-0.7,1.1-1.1,1.5c-0.8,0.9-1.7,1.6-2.7,2
		c-1,0.5-2.1,0.7-3.3,0.7c-1.3,0-2.4-0.2-3.5-0.7c-1.1-0.5-1.9-1.2-2.7-2.1c-0.3-0.3-0.5-0.7-0.8-1.2c-0.3-0.5-0.6-1.1-0.9-1.9
		c-1.4,2-2.6,3.5-3.8,4.4c-0.8,0.5-1.6,0.9-2.4,1.2c-0.8,0.3-1.7,0.4-2.5,0.4c-1,0-1.8-0.1-2.6-0.4c-0.7-0.3-1.4-0.7-2-1.2
		s-1.1-1.2-1.5-1.9c-0.4-0.8-0.9-1.6-1.2-2.5c-0.9,1.3-1.7,2.2-2.4,2.8c-2.2,2.1-4.6,3.2-7.2,3.2h-0.2c-0.6,0-1.1-0.2-1.5-0.6
		C814.6,133.8,814.4,133.3,814.4,132.7z"/>
	<path class="st2" d="M865.6,132.7c0-0.6,0.2-1.1,0.6-1.5c0.4-0.4,0.9-0.6,1.5-0.6h2.9c0.2,0,0.4,0,0.6,0c0.2,0,0.4,0,0.6,0
		c0.9,0,1.7,0,2.6-0.1c0.8-0.1,1.6-0.3,2.3-0.5c0.7-0.3,1.3-0.6,1.8-1.1c0.5-0.5,1-1.1,1.3-1.9v0c0.3-0.6,0.4-1.4,0.4-2.4
		c0-1.7-0.4-3.9-1.2-6.5c-0.1-0.5-0.3-1-0.5-1.5c-0.2-0.5-0.4-1.1-0.6-1.6c-0.2-0.5-0.4-1-0.6-1.4s-0.3-0.8-0.5-1l3.9-2
		c0.1,0.3,0.3,0.6,0.4,1c0.2,0.4,0.4,0.9,0.6,1.4c0.2,0.5,0.4,1.1,0.7,1.7c0.2,0.6,0.5,1.3,0.7,2c0.5,1.5,0.8,2.9,1.1,4.2
		c0.2,1.3,0.4,2.5,0.4,3.6c0,1.6-0.3,3-0.8,4.2c-0.6,1.3-1.5,2.5-2.6,3.5c-1.1,1-2.5,1.7-4,2.1c-1,0.3-1.9,0.4-2.8,0.5
		c-0.9,0.1-1.8,0.1-2.6,0.1h-4c-0.6,0-1.1-0.2-1.5-0.6C865.8,133.8,865.6,133.3,865.6,132.7z M881.2,100.9l-4.1,4.1l-4.1-4.1
		l4.1-4.1L881.2,100.9z"/>
</g>
</svg>
