<?xml version="1.0" encoding="utf-8"?>
<!-- Generator: Adobe Illustrator 21.0.2, SVG Export Plug-In . SVG Version: 6.00 Build 0)  -->
<svg version="1.1" id="Layer_1" xmlns="http://www.w3.org/2000/svg" xmlns:xlink="http://www.w3.org/1999/xlink" x="0px" y="0px"
	 viewBox="0 0 1329.6 394" style="enable-background:new 0 0 1329.6 394;" xml:space="preserve">
<style type="text/css">
	.st0{fill:#FFFFFF;}
	.st1{fill:#C0C5C9;}
	.st2{fill:#314F6A;}
	.st3{fill:#00ADB5;}
	.st4{fill:#353535;}
</style>
<path class="st0" d="M1329.6,47.9c-0.1-2.5-0.3-5-0.7-7.4c-0.1-0.9-0.3-1.7-0.5-2.5c-4.5-20-20.8-35-41.5-37.6
	c-1.2-0.2-2.5-0.3-3.8-0.3c-0.3,0-0.6,0-0.9,0c-0.5,0-1.1,0-1.6,0H49.2C21.7,0,0,21.7,0,49.2v295.5c0,0.9,0,1.7,0.1,2.6
	c0.6,11.9,5.2,22.6,12.6,30.7c0.5,0.6,1.1,1.2,1.6,1.7c1.7,1.7,3.4,3.2,5.3,4.6c0.6,0.5,1.3,0.9,1.9,1.4c1.6,1.1,3.3,2.1,5.1,3
	c1.1,0.5,2.1,1,3.2,1.5c5.9,2.5,12.4,3.8,19.3,3.8l1231.2-0.1c27,0,48.4-21.8,49.2-47.8c0-0.4,0-0.9,0-1.3V49.2
	C1329.6,48.8,1329.6,48.3,1329.6,47.9z M1321.9,344.8c0,22.7-18.7,41.4-41.4,41.4H49.2c-22.7,0-41.4-18.7-41.4-41.4V49.2
	c0-22.7,18.7-41.4,41.4-41.4l1231.3,0.1c22.7,0,41.4,18.7,41.4,41.4V344.8z"/>
<path id="Shape_1_" class="st4" d="M1329.6,47.9c0-2.5-0.3-5-0.7-7.4c-0.1-0.9-0.3-1.7-0.5-2.5c-4.5-19.4-20.9-34.9-41.5-37.6
	c-1.2-0.2-2.5-0.3-3.8-0.3c-0.3,0-0.6,0-0.9,0c-0.5,0-1.1,0-1.6,0H49.2C21.7,0,0,21.7,0,49.2v295.5c0,0.9,0,1.7,0.1,2.6
	c0.6,11.9,5.2,22.6,12.6,30.7c0.5,0.6,1.1,1.2,1.6,1.7c1.7,1.7,3.4,3.2,5.3,4.6c0.6,0.5,1.3,0.9,1.9,1.4c1.6,1.1,3.3,2.1,5.1,3
	c1.1,0.5,2.1,1,3.2,1.5c5.9,2.5,12.4,3.8,19.3,3.8h1231.2c27.2,0,48.5-21,49.2-47.9c0-0.4,0-0.9,0-1.3V49.2
	C1329.6,48.8,1329.6,48.3,1329.6,47.9z M7.8,344.8V49.2c0-22.7,18.7-41.4,41.4-41.4l1231.3,0.1c22.7,0,41.4,18.7,41.4,41.4v295.5
	c0,22.7-18.7,41.4-41.4,41.4H49.2C26.5,386.2,7.8,367.5,7.8,344.8z"/>
<path d="M1321.9,49.3v295.5c0,22.7-18.7,41.4-41.4,41.4H49.2c-22.7,0-41.4-18.7-41.4-41.4V49.2c0-22.7,18.7-41.4,41.4-41.4
	l1231.3,0.1C1303.2,7.9,1321.9,26.6,1321.9,49.3z"/>
<g>
	<path class="st0" d="M1181.4,188.9c-0.3-27.9,22.8-41.3,23.8-42c-12.9-18.9-33.1-21.5-40.3-21.8c-17.2-1.7-33.5,10.1-42.2,10.1
		c-8.7,0-22.1-9.9-36.4-9.6c-18.7,0.3-36,10.9-45.6,27.6c-19.4,33.7-5,83.7,14,111.1c9.3,13.4,20.3,28.4,34.8,27.9
		c14-0.6,19.2-9,36.1-9c16.9,0,21.6,9,36.4,8.8c15-0.3,24.5-13.6,33.7-27.1c10.6-15.5,15-30.6,15.3-31.4
		C1210.7,233.4,1181.7,222.3,1181.4,188.9z M1153.7,107c7.7-9.3,12.9-22.3,11.5-35.2c-11.1,0.5-24.5,7.4-32.5,16.7
		c-7.1,8.3-13.4,21.4-11.7,34.1C1133.3,123.5,1146,116.3,1153.7,107z"/>
</g>
<g>
	<rect x="201.6" y="176.5" class="st0" width="13.8" height="50.2"/>
	<rect x="201.6" y="157.3" class="st0" width="13.8" height="11.4"/>
	<path class="st0" d="M283.9,166.3c-2.9-3.3-6.5-5.9-10.7-7.8c-4.2-1.9-9-2.8-14.4-2.8c-5.3,0-10.1,0.9-14.3,2.8
		c-4.2,1.9-7.8,4.5-10.7,7.8c-2.9,3.3-5.2,7.2-6.7,11.6c-1.6,4.4-2.3,9.2-2.3,14.4c0,5.1,0.8,9.8,2.3,14.1c1.6,4.4,3.8,8.2,6.7,11.4
		c2.9,3.2,6.5,5.8,10.7,7.6c4.2,1.8,9,2.8,14.3,2.8c5.4,0,10.2-0.9,14.4-2.8c4.2-1.8,7.8-4.4,10.7-7.6c2.9-3.2,5.2-7,6.7-11.4
		c1.6-4.4,2.3-9.1,2.3-14.1c0-5.2-0.8-10-2.3-14.4C289.1,173.5,286.8,169.6,283.9,166.3z M276.7,200.8c-0.7,2.8-1.8,5.2-3.3,7.4
		c-1.5,2.2-3.4,4-5.8,5.3c-2.4,1.3-5.3,2-8.7,2c-3.4,0-6.4-0.7-8.7-2c-2.4-1.3-4.3-3.1-5.8-5.3c-1.5-2.2-2.6-4.7-3.3-7.4
		c-0.7-2.8-1-5.6-1-8.5c0-3,0.3-6,1-8.8c0.7-2.8,1.8-5.4,3.3-7.6c1.5-2.2,3.4-4,5.8-5.3c2.4-1.3,5.3-2,8.7-2c3.4,0,6.3,0.7,8.7,2
		c2.4,1.3,4.3,3.1,5.8,5.3c1.5,2.2,2.6,4.8,3.3,7.6c0.7,2.9,1,5.8,1,8.8C277.7,195.2,277.4,198.1,276.7,200.8z"/>
	<path class="st0" d="M349,190.6c-2.3-1.5-4.6-2.6-6.9-3.3c-2.3-0.7-4.1-1.1-5.4-1.4c-4.3-1.1-7.9-2-10.5-2.7
		c-2.7-0.7-4.8-1.4-6.3-2.1c-1.5-0.7-2.5-1.5-3.1-2.3c-0.5-0.8-0.8-1.9-0.8-3.3c0-1.5,0.3-2.7,1-3.7c0.6-1,1.5-1.8,2.5-2.4
		c1-0.6,2.1-1.1,3.4-1.4c1.2-0.3,2.5-0.4,3.7-0.4c1.9,0,3.6,0.2,5.2,0.5c1.6,0.3,3,0.9,4.2,1.7c1.2,0.8,2.2,1.8,3,3.2
		c0.7,1.4,1.2,3.1,1.3,5.2h14.8c0-4-0.8-7.4-2.3-10.3c-1.5-2.8-3.6-5.1-6.2-6.9c-2.6-1.8-5.6-3.1-8.9-3.9c-3.3-0.8-6.8-1.2-10.4-1.2
		c-3.1,0-6.2,0.4-9.3,1.3c-3.1,0.8-5.9,2.1-8.4,3.9c-2.5,1.8-4.5,3.9-6,6.6c-1.5,2.6-2.3,5.7-2.3,9.3c0,3.2,0.6,5.9,1.8,8.1
		c1.2,2.2,2.8,4.1,4.7,5.6c1.9,1.5,4.1,2.7,6.6,3.6c2.5,0.9,5,1.7,7.6,2.4c2.5,0.7,5,1.4,7.5,1.9c2.5,0.6,4.7,1.3,6.6,2
		c1.9,0.8,3.5,1.7,4.7,2.9c1.2,1.2,1.8,2.7,1.8,4.6c0,1.7-0.5,3.2-1.4,4.3c-0.9,1.1-2,2-3.4,2.7c-1.4,0.6-2.8,1.1-4.4,1.3
		c-1.6,0.2-3,0.3-4.4,0.3c-2,0-4-0.2-5.8-0.7c-1.9-0.5-3.5-1.2-4.9-2.2c-1.4-1-2.5-2.3-3.4-3.9c-0.8-1.6-1.3-3.6-1.3-5.9H299
		c-0.1,4.3,0.7,8,2.3,11.1c1.6,3.1,3.8,5.7,6.6,7.7c2.8,2,5.9,3.5,9.5,4.4s7.3,1.4,11.1,1.4c4.7,0,8.9-0.6,12.5-1.7
		c3.6-1.1,6.6-2.6,9-4.6c2.4-2,4.3-4.3,5.5-7c1.2-2.7,1.8-5.7,1.8-8.8c0-3.9-0.8-7.1-2.5-9.6C353.3,194.1,351.3,192.1,349,190.6z"/>
	
		<rect x="451.6" y="170.6" transform="matrix(0.7071 -0.7071 0.7071 0.7071 9.8403 373.7386)" class="st0" width="8.8" height="8.8"/>
	
		<rect x="591.5" y="169.6" transform="matrix(0.7071 -0.7071 0.7071 0.7071 51.5011 472.2967)" class="st0" width="8.8" height="8.8"/>
	<path class="st0" d="M605.3,198.2c-0.3-1-0.7-2-1-3c-0.4-1-0.7-1.8-1-2.7s-0.6-1.5-0.9-2.2c-0.3-0.6-0.5-1.1-0.7-1.5l-6,3
		c0.2,0.4,0.4,0.9,0.7,1.6c0.3,0.6,0.6,1.4,0.9,2.1c0.3,0.8,0.6,1.6,1,2.4c0.3,0.8,0.6,1.6,0.8,2.3c1.2,4,1.9,7.3,1.9,9.9
		c0,1.5-0.2,2.8-0.7,3.7v0c-0.5,1.2-1.2,2.1-2,2.8c-0.8,0.7-1.8,1.3-2.8,1.7c-1.1,0.4-2.2,0.7-3.5,0.8c-1.3,0.1-2.6,0.2-3.9,0.2
		c-0.3,0-0.6,0-1,0c-0.3,0-0.6,0-1,0h-4h-0.3c-2.2,0-4.2-0.9-5.9-2.7c-1.7-1.8-3.1-4.5-4.3-8.2c-0.8-2.5-1.3-4.6-1.6-6.5
		c-0.3-1.9-0.5-3.7-0.6-5.4l-6.7,0.6c0.1,0.8,0.1,1.6,0.2,2.4c0.1,0.8,0.1,1.6,0.1,2.3c0,0.5,0,1,0,1.6c0,0.6,0,1.1-0.1,1.7
		c-0.2,2.9-0.6,5.4-1.2,7.5s-1.4,3.7-2.5,4.8v0c-1,1.2-2.4,1.8-4.2,1.8c-1.2,0-2.1-0.2-2.8-0.6s-1.1-0.8-1.5-1.3
		c-0.7-0.9-1.3-2.2-1.7-3.8c-0.4-1.6-0.6-3.5-0.6-5.7c0-0.3,0-0.6,0-1s0-0.7,0-1c0.1-1.2,0.1-2.4,0.3-3.6c0.1-1.2,0.3-2.6,0.6-4.1
		l-6.5-1.2c-0.3,1.6-0.6,3.1-1,4.5c-0.4,1.4-0.8,2.8-1.2,4.2v0c-1,3.1-2.1,5.7-3.4,7.8c-1.3,2.1-2.6,3.7-3.9,4.7
		c-0.6,0.5-1.4,0.8-2.2,1.1c-0.8,0.2-1.6,0.2-2.4,0c-1.1-0.1-2-0.7-2.5-1.6v0c-0.5-0.8-0.8-1.7-1-2.7c-0.2-1-0.3-1.9-0.4-2.9
		c0-1,0-1.9,0.1-2.9s0.2-1.9,0.3-2.8c0.2-1.4,0.4-2.8,0.7-4.1c0.3-1.3,0.5-2.3,0.7-3l0,0c0-0.1,0-0.1,0.1-0.3
		c-1.1-0.3-2.1-0.6-3.2-0.9c-1.1-0.3-2.1-0.6-3.2-0.9v0.1c-0.1,0.5-0.3,1.1-0.6,1.9s-0.6,1.7-0.9,2.7c-0.4,1-0.8,2.1-1.3,3.2
		c-0.5,1.1-1,2.3-1.6,3.4c-0.6,1.2-1.4,2.5-2.2,3.7c-0.8,1.3-1.7,2.4-2.7,3.4c-1,1-2.1,1.9-3.2,2.5c-1.1,0.7-2.4,1-3.7,1h-0.3
		c0,0,0,0,0,0c0,0,0,0,0,0h-0.3h-0.3c-0.5,0-1.2,0-2.1-0.1c-0.9-0.1-1.8-0.2-2.8-0.4c-1-0.2-2.1-0.5-3.1-0.8c-1.1-0.4-2.1-0.9-3-1.5
		c-1-0.6-1.8-1.4-2.6-2.3c-0.8-0.9-1.3-2-1.7-3.3c1-0.5,1.8-0.9,2.3-1.1c0.5-0.3,0.9-0.5,1.2-0.6c0.3-0.1,0.6-0.3,0.8-0.4
		s0.6-0.3,1.1-0.5c-0.1-0.6-0.3-1.2-0.4-1.7c-0.1-0.5-0.2-1-0.3-1.5c-0.1-0.5-0.2-1-0.3-1.6c-0.1-0.5-0.2-1.1-0.4-1.8
		c-1.9-0.4-3.8-1-5.7-1.8c-1.9-0.8-3.8-1.7-5.8-2.7c-1.9-1-3.9-2-5.9-3c-2-1-3.9-1.9-5.9-2.7c-2-0.8-3.9-1.5-5.9-2
		c-2-0.5-3.9-0.8-5.8-0.8c-2.1,0-4.1,0.4-5.9,1.1c-1.8,0.8-3.4,1.8-4.9,3c-1.5,1.2-2.8,2.6-4,4.2c-1.2,1.6-2.2,3.2-3.1,4.8l5.5,3.7
		c0.3-0.6,0.9-1.5,1.6-2.7c0.7-1.1,1.6-2.3,2.7-3.4c1.1-1.1,2.3-2,3.6-2.9s2.8-1.2,4.4-1.2c1.3,0,2.7,0.2,4.2,0.6
		c1.5,0.4,3,0.9,4.6,1.5s3.2,1.3,4.8,2.1c1.6,0.8,3.2,1.5,4.7,2.3c1.5,0.7,3,1.5,4.5,2.1s2.8,1.2,4,1.6l-2.5,1.3
		c-3,1.5-6.1,3-9.3,4.5c-3.2,1.5-6.4,2.8-9.7,3.9c-3.3,1.2-6.7,2.1-10.3,2.8c-3.5,0.7-7.2,1.1-11,1.1h-7.7c-1.1,0-2.1-0.1-2.9-0.2
		c-0.8-0.1-1.6-0.4-2.2-0.7c-0.6-0.3-1.2-0.8-1.7-1.4c-0.5-0.6-0.9-1.3-1.3-2.2v0c-0.1-0.2-0.2-0.6-0.4-1.2c-0.2-0.6-0.4-1.6-0.7-3
		c-0.3-1.4-0.6-3.2-1-5.6s-0.8-5.4-1.2-9v0c0-0.2-0.1-0.7-0.2-1.4c-0.1-0.7-0.2-1.6-0.3-2.6c-0.1-1-0.2-2.1-0.3-3.2
		c-0.1-1.1-0.2-2.2-0.3-3.2c-0.1-1-0.2-1.9-0.3-2.7c-0.1-0.8-0.1-1.3-0.1-1.5l-6.6,1.4l0.6,6.1c-0.8,0.3-1.8,0.7-2.9,1.1
		c-1.1,0.4-2.2,1-3.5,1.6c-1.2,0.6-2.5,1.4-3.8,2.2s-2.5,1.8-3.7,2.8c-1.2,1-2.3,2.2-3.4,3.5c-1,1.3-1.9,2.7-2.7,4.2
		c-0.2,0.5-0.4,1.1-0.5,1.8c-0.1,0.7-0.2,1.5-0.2,2.5c0,1,0.1,2.1,0.4,3.2c0.3,1.1,0.8,2.1,1.6,3c2.7,3.3,7.5,5,14.5,5
		c2.6,0,5.9-0.3,9.7-0.9c1.6,2.6,3.4,4.3,5.5,5.3h0c1.4,0.6,2.8,1.1,4.2,1.2c1.4,0.2,2.6,0.3,3.7,0.3c0,0,0,0,0,0l7.7,0
		c3.8,0,7.5-0.3,11.2-1c3.6-0.7,7.1-1.6,10.5-2.7c3.4-1.1,6.7-2.4,9.8-3.8c3.2-1.4,6.2-2.9,9.2-4.4c0.7,1.9,1.8,3.5,3.1,5
		c1.3,1.5,2.9,2.7,4.7,3.7c1.8,1,3.9,1.8,6.2,2.3c2.3,0.5,4.8,0.8,7.5,0.8h0.6h0h0.4c4,0,7.6-1.6,10.9-4.9c1-0.9,2.2-2.4,3.7-4.3
		c0.6,1.4,1.2,2.7,1.9,3.9c0.7,1.2,1.4,2.1,2.3,2.9c0.9,0.8,1.9,1.4,3,1.8c1.1,0.4,2.4,0.6,3.9,0.6c1.3,0,2.6-0.2,3.8-0.7
		s2.5-1,3.6-1.8c1.8-1.3,3.7-3.5,5.8-6.7c0.5,1.2,0.9,2.1,1.3,2.9c0.4,0.7,0.8,1.4,1.2,1.8c1.1,1.4,2.5,2.5,4.1,3.3
		c1.6,0.7,3.4,1.1,5.3,1.1c1.8,0,3.5-0.3,5.1-1c1.5-0.7,2.9-1.7,4.1-3.1c0.5-0.6,1.1-1.3,1.6-2.3c0.5-0.9,1.1-2,1.7-3.3
		c0.6,1,1.1,1.8,1.6,2.6c0.5,0.7,1,1.4,1.5,1.8c1.5,1.7,3.2,3,5.1,3.9c1.9,0.9,3.8,1.3,5.9,1.3c0,0,0,0,0.1,0h0h0.3h5.8
		c1.3,0,2.6,0,4-0.1c1.4-0.1,2.8-0.3,4.3-0.8c2.4-0.6,4.4-1.7,6.1-3.2c1.7-1.5,3-3.2,4-5.3c0.8-1.8,1.2-4,1.2-6.5
		c0-1.7-0.2-3.5-0.5-5.5C606.5,202.6,606,200.4,605.3,198.2z M413.9,213.2c-1.4,0.2-2.7,0.2-4,0.2c-1.2,0-2.5-0.1-3.6-0.2
		c-1.2-0.2-2.2-0.4-3.2-0.8c-0.9-0.4-1.7-1-2.3-1.6c-0.6-0.7-0.9-1.5-0.9-2.6c0-1,0.2-1.9,0.7-2.8c0.5-0.9,1.1-1.7,1.9-2.5
		c0.8-0.8,1.7-1.5,2.7-2.2s2-1.3,3.1-1.8c1-0.5,2-1,3-1.5c1-0.4,1.8-0.8,2.5-1.1l1.1-0.4c0.5,3.6,0.9,6.8,1.3,9.6
		c0.4,2.8,0.8,5.2,1.2,7.2C416.5,212.9,415.3,213.1,413.9,213.2z"/>
	<path class="st0" d="M681.6,207.8c-0.4-1.7-1-3.4-1.8-5.2c-0.8-1.8-1.8-3.5-2.9-5.3s-2.4-3.5-3.8-5.2c-1.4-1.7-2.8-3.3-4.4-4.8
		s-3.1-2.9-4.7-4.1c-1.6-1.2-3.2-2.3-4.7-3.1c-0.5,1.1-0.9,2.1-1.4,3c-0.4,1-0.9,2-1.4,3.1c1.2,0.6,2.6,1.6,4.2,3
		c1.6,1.3,3.2,2.9,4.9,4.6c1.7,1.7,3.2,3.6,4.7,5.6c1.5,2,2.7,3.9,3.7,5.8c0.9,1.9,1.5,3.7,1.7,5.4s-0.2,3.2-1.2,4.4
		c-1.2,1.5-2.8,2.5-4.6,3.1c-1.9,0.6-3.9,0.9-5.9,0.9c-1.5,0-3-0.1-4.5-0.4c-1.5-0.3-3-0.6-4.5-1c-1.5-0.4-2.8-0.9-4.1-1.4
		c-1.3-0.5-2.4-1.1-3.4-1.7l-2.8,6.5c0.7,0.6,1.8,1.2,3.3,1.8c1.5,0.6,3,1.1,4.7,1.6c1.7,0.5,3.4,0.8,5.2,1.1s3.2,0.4,4.5,0.4
		c1.3,0,2.5-0.1,3.7-0.2c1.2-0.1,2.2-0.3,3.2-0.5c4.5-1,7.9-2.9,10.4-6c0.7-0.8,1.2-1.7,1.5-2.6c0.4-0.9,0.6-1.9,0.7-2.9
		c0.1-1,0.1-2,0.1-3C681.9,209.7,681.8,208.7,681.6,207.8z"/>
	
		<rect x="768.4" y="169.6" transform="matrix(0.7072 -0.7071 0.7071 0.7072 103.2956 597.3604)" class="st0" width="8.8" height="8.8"/>
	<path class="st0" d="M782.2,198.2c-0.3-1-0.7-2-1-3c-0.4-1-0.7-1.8-1-2.7s-0.6-1.5-0.9-2.2c-0.3-0.6-0.5-1.1-0.7-1.5l-6,3
		c0.2,0.4,0.4,0.9,0.7,1.6c0.3,0.6,0.6,1.4,0.9,2.1c0.3,0.8,0.6,1.6,1,2.4c0.3,0.8,0.6,1.6,0.8,2.3c1.2,4,1.9,7.3,1.9,9.9
		c0,1.5-0.2,2.8-0.7,3.7v0c-0.5,1.2-1.2,2.1-2,2.8c-0.8,0.7-1.8,1.3-2.8,1.7c-1.1,0.4-2.2,0.7-3.5,0.8c-1.3,0.1-2.6,0.2-3.9,0.2
		c-0.3,0-0.6,0-1,0c-0.3,0-0.6,0-1,0h-4c-1.1,0-2-0.1-2.8-0.3c-0.8-0.2-1.4-0.4-2-0.7c-0.6-0.3-1-0.7-1.5-1.1
		c-0.4-0.4-0.8-0.9-1.1-1.4c-0.3-0.5-0.6-1-0.8-1.5c-0.2-0.5-0.3-1-0.4-1.5c-0.1-0.5-0.2-1-0.2-1.4c0-0.4,0-0.8,0-1.2
		c0.1-3.3,0.1-7,0.2-11.1c0.1-4.1,0.1-8.4,0.1-12.8c0-2.2,0-4.4,0-6.7c0-2.3-0.1-4.5-0.1-6.5c-0.1-2.1-0.2-4.1-0.3-5.9
		c-0.1-1.8-0.2-3.4-0.4-4.8c-1.1,0.1-2.2,0.3-3.2,0.4c-1,0.2-2.2,0.3-3.3,0.4c0.1,1.2,0.2,2.7,0.3,4.3c0.1,1.6,0.1,3.4,0.2,5.4
		c0,1.9,0.1,3.9,0.1,6c0,2.1,0,4.2,0,6.4c0,2.7,0,5.4,0,8c0,2.6-0.1,5-0.1,7.2c0,2.2-0.1,4.1-0.1,5.8s0,2.9,0,3.7
		c-0.1,0.8-0.1,1.5-0.2,2.3c-0.1,0.8-0.2,1.5-0.4,2.2c-0.2,0.7-0.5,1.3-0.8,1.9c-0.3,0.6-0.7,1.1-1.1,1.4c-0.3,0.2-0.5,0.4-0.9,0.5
		c-0.3,0.1-0.7,0.3-1.2,0.4c-0.5,0.1-1,0.2-1.6,0.2c-0.6,0.1-1.4,0.1-2.3,0.1h-3.6H731h0h-4c-0.1-2.2-0.3-4.4-0.7-6.5
		c-0.4-2.1-0.9-4.2-1.6-6.1c-0.7-1.9-1.5-3.7-2.4-5.4c-0.9-1.7-2-3.1-3.1-4.4v0c-3.2-3.4-6.6-5.2-10.4-5.2c-1.6,0-3.3,0.4-4.9,1.3
		s-3.1,2.1-4.4,3.7c-0.7,0.9-1.3,2-1.9,3.1c-0.6,1.2-1.1,2.4-1.6,3.7c-0.4,1.3-0.8,2.6-1.1,4s-0.4,2.7-0.4,4c0,1.6,0.2,3.1,0.6,4.6
		c0.4,1.4,1.1,2.7,2,3.9v0c2.8,3.4,7.1,5.3,12.9,5.7c1.1,0.1,2.2,0.1,3.4,0.2c1.1,0,2.2,0,3.3,0h3.3c-0.3,2.3-1.2,4.6-2.7,6.9
		s-3.4,4.5-5.8,6.6s-5.4,3.9-8.8,5.6c-3.4,1.7-7.3,3-11.6,3.9l1.6,6.5c3.9-0.7,7.8-1.8,11.5-3.4c3.7-1.6,7-3.7,10.1-6.2
		c3-2.5,5.6-5.4,7.7-8.7s3.6-7.1,4.4-11.2h4.5h0h0.4h4.6c0.7,0,1.4,0,2.1-0.1c0.7-0.1,1.5-0.2,2.3-0.4c0.8-0.2,1.6-0.5,2.4-0.8
		c0.8-0.4,1.5-0.8,2.3-1.4c0.3-0.2,0.6-0.5,1-0.9c0.4-0.4,0.8-0.8,1.2-1.2c0.6,0.7,1.3,1.3,2.1,1.9c0.8,0.6,1.7,1.1,2.7,1.5
		c1,0.4,2,0.8,3.2,1c1,0.2,2.1,0.3,3.2,0.3c0.1,0,0.1,0,0.2,0h6.2c1.3,0,2.6,0,4-0.1c1.4-0.1,2.8-0.3,4.3-0.8
		c2.4-0.6,4.4-1.7,6.1-3.2c1.7-1.5,3-3.2,4-5.3c0.8-1.8,1.2-4,1.2-6.5c0-1.7-0.2-3.5-0.5-5.5C783.4,202.6,782.9,200.4,782.2,198.2z
		 M715.6,219.2c-1.7,0-3.4,0-5-0.1c-0.6,0-1.2-0.1-2-0.2c-0.8-0.1-1.6-0.3-2.5-0.5c-0.8-0.2-1.7-0.6-2.4-1s-1.4-0.9-1.9-1.5v0
		c-0.4-0.5-0.8-1.2-1.1-1.9c-0.3-0.8-0.4-1.6-0.4-2.5c0-1.4,0.3-2.8,0.8-4.3c0.5-1.5,1.2-2.9,2-4.2c0.8-1.3,1.7-2.4,2.7-3.2
		c1-0.9,2-1.3,3.1-1.3c0.6,0,1.1,0.1,1.6,0.3c0.5,0.2,1,0.4,1.5,0.7c0.5,0.3,0.9,0.6,1.3,1c0.4,0.4,0.7,0.7,1.1,1
		c0.8,0.8,1.5,1.9,2.2,3.1s1.3,2.5,1.9,4c0.5,1.5,1,3.1,1.4,4.9c0.4,1.8,0.6,3.6,0.7,5.6C718.9,219.1,717.3,219.2,715.6,219.2z"/>
	<path class="st0" d="M803.6,188.1c-0.1-1.7-0.1-3.6-0.2-5.6c-0.1-2-0.2-4-0.3-6.1c-0.1-2.1-0.3-4.1-0.4-6c-0.1-1.9-0.3-3.6-0.5-5.2
		c-0.1-0.8-0.2-1.5-0.2-2c-0.1-0.5-0.1-0.9-0.1-1.3c0-0.3-0.1-0.5-0.1-0.7c0-0.1,0-0.2,0-0.3l-6.6,1c0.1,0.9,0.3,2.5,0.5,4.6
		c0.2,2.2,0.5,5,0.7,8.3c0.3,3.3,0.5,7.2,0.7,11.6c0.2,4.4,0.3,9.2,0.3,14.5c0,1.9,0,3.9,0,5.8c0,2-0.1,4-0.1,6
		c-0.1,2-0.2,4.1-0.3,6.3c-0.1,2.2-0.2,4.4-0.4,6.7l6.6,0.4c0.3-4.6,0.5-9,0.6-13.2c0.1-4.2,0.2-8.1,0.2-11.9c0-2.4,0-4.7-0.1-6.9
		C803.7,192.2,803.7,190.1,803.6,188.1z"/>
	<path class="st0" d="M852.6,210.7c-0.1-1-0.2-2-0.4-2.9c-0.4-1.7-1-3.4-1.8-5.2c-0.8-1.8-1.8-3.5-2.9-5.3s-2.4-3.5-3.8-5.2
		s-2.8-3.3-4.4-4.8s-3.1-2.9-4.7-4.1c-1.6-1.2-3.2-2.3-4.7-3.1c-0.5,1.1-0.9,2.1-1.4,3c-0.4,1-0.9,2-1.4,3.1c1.2,0.6,2.6,1.6,4.2,3
		s3.2,2.9,4.9,4.6c1.7,1.7,3.2,3.6,4.7,5.6c1.5,2,2.7,3.9,3.7,5.8c0.9,1.9,1.5,3.7,1.7,5.4c0.2,1.7-0.2,3.2-1.2,4.4
		c-1.2,1.5-2.8,2.5-4.6,3.1c-1.9,0.6-3.9,0.9-5.9,0.9c-1.5,0-3-0.1-4.5-0.4c-1.5-0.3-3-0.6-4.5-1c-1.5-0.4-2.8-0.9-4.1-1.4
		c-1.3-0.5-2.4-1.1-3.4-1.7l-2.8,6.5c0.7,0.6,1.8,1.2,3.3,1.8c1.5,0.6,3,1.1,4.7,1.6c1.7,0.5,3.4,0.8,5.2,1.1s3.2,0.4,4.5,0.4
		c1.3,0,2.5-0.1,3.7-0.2c1.2-0.1,2.2-0.3,3.2-0.5c4.5-1,7.9-2.9,10.4-6c0.7-0.8,1.2-1.7,1.5-2.6c0.4-0.9,0.6-1.9,0.7-2.9
		C852.7,212.7,852.7,211.7,852.6,210.7z"/>
</g>
</svg>
